<svg xmlns="http://www.w3.org/2000/svg" xmlns:xlink="http://www.w3.org/1999/xlink" width="112" zoomAndPan="magnify" viewBox="0 0 84 83.999999" height="112" preserveAspectRatio="xMidYMid meet" version="1.0"><defs><g/><clipPath id="ec55afb55c"><path d="M 8 1 L 37 1 L 37 68 L 8 68 Z M 8 1 " clip-rule="nonzero"/></clipPath><clipPath id="ff48fe2a21"><path d="M 6.316406 3.046875 L 35.628906 0.675781 L 40.925781 66.0625 L 11.613281 68.4375 Z M 6.316406 3.046875 " clip-rule="nonzero"/></clipPath><clipPath id="e8810d3341"><path d="M 6.316406 3.046875 L 35.628906 0.675781 L 40.925781 66.0625 L 11.613281 68.4375 Z M 6.316406 3.046875 " clip-rule="nonzero"/></clipPath><clipPath id="210e205e6b"><path d="M 6.316406 3.046875 L 35.628906 0.675781 L 40.925781 66.0625 L 11.613281 68.4375 Z M 6.316406 3.046875 " clip-rule="nonzero"/></clipPath><clipPath id="318183f3a3"><path d="M 31 3 L 32 3 L 32 4 L 31 4 Z M 31 3 " clip-rule="nonzero"/></clipPath><clipPath id="9a45d01dcf"><path d="M 6.316406 3.046875 L 35.628906 0.675781 L 40.925781 66.0625 L 11.613281 68.4375 Z M 6.316406 3.046875 " clip-rule="nonzero"/></clipPath><clipPath id="8f5d368798"><path d="M 6.316406 3.046875 L 35.628906 0.675781 L 40.925781 66.0625 L 11.613281 68.4375 Z M 6.316406 3.046875 " clip-rule="nonzero"/></clipPath><clipPath id="3d21da9c5f"><path d="M 6.316406 3.046875 L 35.628906 0.675781 L 40.925781 66.0625 L 11.613281 68.4375 Z M 6.316406 3.046875 " clip-rule="nonzero"/></clipPath><clipPath id="d451c80f97"><path d="M 23 2 L 24 2 L 24 3 L 23 3 Z M 23 2 " clip-rule="nonzero"/></clipPath><clipPath id="5ba6a610f0"><path d="M 6.316406 3.046875 L 35.628906 0.675781 L 40.925781 66.0625 L 11.613281 68.4375 Z M 6.316406 3.046875 " clip-rule="nonzero"/></clipPath><clipPath id="b4dede0dc7"><path d="M 6.316406 3.046875 L 35.628906 0.675781 L 40.925781 66.0625 L 11.613281 68.4375 Z M 6.316406 3.046875 " clip-rule="nonzero"/></clipPath><clipPath id="c605674ac8"><path d="M 6.316406 3.046875 L 35.628906 0.675781 L 40.925781 66.0625 L 11.613281 68.4375 Z M 6.316406 3.046875 " clip-rule="nonzero"/></clipPath><clipPath id="71316c8d4c"><path d="M 31 4 L 32 4 L 32 5 L 31 5 Z M 31 4 " clip-rule="nonzero"/></clipPath><clipPath id="60591a23aa"><path d="M 6.316406 3.046875 L 35.628906 0.675781 L 40.925781 66.0625 L 11.613281 68.4375 Z M 6.316406 3.046875 " clip-rule="nonzero"/></clipPath><clipPath id="dcb5ff4c2c"><path d="M 6.316406 3.046875 L 35.628906 0.675781 L 40.925781 66.0625 L 11.613281 68.4375 Z M 6.316406 3.046875 " clip-rule="nonzero"/></clipPath><clipPath id="132dff5109"><path d="M 6.316406 3.046875 L 35.628906 0.675781 L 40.925781 66.0625 L 11.613281 68.4375 Z M 6.316406 3.046875 " clip-rule="nonzero"/></clipPath><clipPath id="8223a9babd"><path d="M 23 8 L 25 8 L 25 9 L 23 9 Z M 23 8 " clip-rule="nonzero"/></clipPath><clipPath id="4acae60c1f"><path d="M 6.316406 3.046875 L 35.628906 0.675781 L 40.925781 66.0625 L 11.613281 68.4375 Z M 6.316406 3.046875 " clip-rule="nonzero"/></clipPath><clipPath id="285b75ba94"><path d="M 6.316406 3.046875 L 35.628906 0.675781 L 40.925781 66.0625 L 11.613281 68.4375 Z M 6.316406 3.046875 " clip-rule="nonzero"/></clipPath><clipPath id="f7d860f4c1"><path d="M 6.316406 3.046875 L 35.628906 0.675781 L 40.925781 66.0625 L 11.613281 68.4375 Z M 6.316406 3.046875 " clip-rule="nonzero"/></clipPath><clipPath id="c76ca8a61b"><path d="M 0 21 L 42.960938 21 L 42.960938 78 L 0 78 Z M 0 21 " clip-rule="nonzero"/></clipPath><clipPath id="b635159ebe"><rect x="0" width="43" y="0" height="57"/></clipPath><clipPath id="cc7677f081"><rect x="0" width="43" y="0" height="78"/></clipPath></defs><g transform="matrix(1, 0, 0, 1, 18, 6)"><g clip-path="url(#cc7677f081)"><g clip-path="url(#ec55afb55c)"><g clip-path="url(#ff48fe2a21)"><g clip-path="url(#e8810d3341)"><g clip-path="url(#210e205e6b)"><path fill="#000000" d="M 27.910156 22.722656 C 27.976562 22.785156 27.992188 22.734375 28.015625 22.707031 C 27.988281 22.710938 27.960938 22.714844 27.910156 22.722656 Z M 27.167969 12.761719 C 27.117188 12.738281 27.132812 12.734375 27.105469 12.769531 C 27.152344 12.800781 27.136719 12.800781 27.167969 12.761719 Z M 22.476562 14.996094 C 22.433594 14.996094 22.441406 14.980469 22.457031 15.078125 C 22.484375 15.074219 22.476562 15.085938 22.476562 14.996094 Z M 22.96875 3.660156 C 22.921875 3.65625 22.929688 3.640625 22.9375 3.742188 C 22.972656 3.742188 22.964844 3.757812 22.96875 3.660156 Z M 29.144531 9.441406 C 29.171875 9.457031 29.160156 9.464844 29.203125 9.390625 C 29.15625 9.378906 29.171875 9.367188 29.144531 9.441406 Z M 32.671875 22.828125 C 32.675781 22.828125 32.667969 22.800781 32.664062 22.78125 C 32.5625 22.824219 32.578125 22.859375 32.671875 22.828125 Z M 30.230469 5.644531 C 30.253906 5.574219 30.257812 5.59375 30.222656 5.574219 C 30.199219 5.617188 30.199219 5.597656 30.230469 5.644531 Z M 29.886719 5.722656 C 29.847656 5.699219 29.863281 5.691406 29.8125 5.769531 C 29.835938 5.789062 29.820312 5.796875 29.886719 5.722656 Z M 26.410156 6.773438 C 26.320312 6.738281 26.351562 6.835938 26.375 6.816406 C 26.386719 6.808594 26.394531 6.792969 26.410156 6.773438 Z M 28.933594 7.445312 C 28.917969 7.523438 28.964844 7.503906 29.007812 7.496094 C 28.980469 7.476562 28.957031 7.464844 28.933594 7.445312 Z M 30.449219 8.75 C 30.414062 8.769531 30.414062 8.75 30.460938 8.847656 C 30.496094 8.828125 30.5 8.847656 30.449219 8.75 Z M 30.832031 15.8125 C 30.851562 15.800781 30.855469 15.816406 30.820312 15.746094 C 30.792969 15.761719 30.792969 15.75 30.832031 15.8125 Z M 23.648438 17.328125 C 23.691406 17.324219 23.714844 17.324219 23.738281 17.320312 C 23.71875 17.25 23.691406 17.257812 23.648438 17.328125 Z M 31.820312 21.9375 C 31.8125 21.914062 31.824219 21.914062 31.75 21.9375 C 31.769531 21.960938 31.753906 21.964844 31.820312 21.9375 Z M 23.933594 17.355469 C 23.984375 17.34375 23.941406 17.265625 23.910156 17.289062 C 23.917969 17.3125 23.925781 17.335938 23.933594 17.355469 Z M 20.265625 19.550781 C 20.34375 19.472656 20.234375 19.398438 20.25 19.496094 C 20.253906 19.515625 20.261719 19.53125 20.265625 19.550781 Z M 12.359375 18.636719 C 12.394531 18.65625 12.378906 18.664062 12.414062 18.589844 C 12.394531 18.578125 12.40625 18.570312 12.359375 18.636719 Z M 22.785156 12.804688 C 22.84375 12.75 22.84375 12.75 22.78125 12.714844 C 22.78125 12.738281 22.78125 12.761719 22.785156 12.804688 Z M 11.769531 20.144531 C 11.738281 20.15625 11.738281 20.140625 11.777344 20.214844 C 11.804688 20.199219 11.804688 20.214844 11.769531 20.144531 Z M 12.203125 14.140625 C 12.246094 14.125 12.242188 14.140625 12.195312 14.066406 C 12.167969 14.078125 12.167969 14.0625 12.203125 14.140625 Z M 26.15625 19.386719 C 26.148438 19.449219 26.167969 19.480469 26.238281 19.464844 C 26.203125 19.433594 26.179688 19.410156 26.15625 19.386719 Z M 28.710938 22.601562 C 28.746094 22.621094 28.730469 22.628906 28.789062 22.535156 C 28.761719 22.519531 28.777344 22.507812 28.710938 22.601562 Z M 14.792969 18.636719 C 14.78125 18.609375 14.769531 18.582031 14.753906 18.546875 C 14.703125 18.613281 14.757812 18.621094 14.792969 18.636719 Z M 27.007812 5.6875 C 26.929688 5.738281 26.9375 5.777344 26.957031 5.835938 C 26.976562 5.785156 26.988281 5.75 27.007812 5.6875 Z M 30.882812 24.363281 C 30.871094 24.378906 30.859375 24.394531 30.847656 24.40625 C 30.859375 24.414062 30.875 24.429688 30.878906 24.429688 C 30.941406 24.402344 30.898438 24.375 30.882812 24.363281 Z M 15.171875 25.304688 C 15.214844 25.25 15.238281 25.214844 15.179688 25.175781 C 15.175781 25.21875 15.175781 25.25 15.171875 25.304688 Z M 33.449219 23.550781 C 33.445312 23.457031 33.445312 23.457031 33.378906 23.457031 C 33.398438 23.484375 33.414062 23.503906 33.449219 23.550781 Z M 33.578125 21.175781 C 33.550781 21.195312 33.550781 21.175781 33.597656 21.269531 C 33.636719 21.230469 33.636719 21.25 33.578125 21.175781 Z M 21.851562 13.066406 C 21.898438 13.074219 21.882812 13.089844 21.910156 12.984375 C 21.859375 12.972656 21.875 12.957031 21.851562 13.066406 Z M 14.144531 14.339844 C 14.109375 14.367188 14.109375 14.34375 14.167969 14.472656 C 14.195312 14.460938 14.195312 14.484375 14.144531 14.339844 Z M 13.988281 14.628906 C 13.980469 14.566406 13.980469 14.535156 13.976562 14.5 C 13.90625 14.574219 13.957031 14.597656 13.988281 14.628906 Z M 14.496094 19.375 C 14.46875 19.410156 14.402344 19.484375 14.464844 19.480469 C 14.515625 19.476562 14.527344 19.441406 14.496094 19.375 Z M 16.335938 23.28125 C 16.277344 23.386719 16.277344 23.351562 16.375 23.410156 C 16.363281 23.277344 16.371094 23.300781 16.335938 23.28125 Z M 28.566406 9.703125 C 28.585938 9.785156 28.625 9.777344 28.675781 9.746094 C 28.644531 9.734375 28.613281 9.722656 28.566406 9.703125 Z M 32.730469 20.066406 C 32.738281 20.03125 32.773438 19.953125 32.703125 19.96875 C 32.632812 19.980469 32.714844 20.046875 32.730469 20.066406 Z M 26.859375 5.058594 C 26.828125 4.910156 26.859375 4.917969 26.734375 5.003906 C 26.792969 5.03125 26.8125 5.039062 26.859375 5.058594 Z M 22.886719 4.332031 C 22.925781 4.300781 22.933594 4.265625 22.914062 4.222656 C 22.894531 4.253906 22.835938 4.277344 22.886719 4.332031 Z M 33.347656 17.355469 C 33.4375 17.339844 33.414062 17.269531 33.320312 17.230469 C 33.332031 17.285156 33.339844 17.320312 33.347656 17.355469 Z M 19.765625 11.234375 C 19.71875 11.359375 19.71875 11.363281 19.808594 11.363281 C 19.792969 11.324219 19.78125 11.285156 19.765625 11.234375 Z M 29.082031 7.960938 C 29.125 7.882812 29.042969 7.859375 28.960938 7.90625 C 29 7.925781 29.042969 7.945312 29.082031 7.960938 Z M 23.78125 17.359375 C 23.792969 17.4375 23.726562 17.507812 23.820312 17.554688 C 23.878906 17.484375 23.859375 17.429688 23.78125 17.359375 Z M 27.90625 13.871094 C 28.117188 13.804688 28.09375 13.824219 28.078125 13.78125 C 28.007812 13.765625 27.945312 13.785156 27.90625 13.871094 Z M 18.105469 18.105469 C 18.238281 18.226562 18.214844 18.21875 18.25 18.191406 C 18.171875 18.035156 18.203125 18.046875 18.105469 18.105469 Z M 30.460938 17.839844 C 30.5 17.863281 30.527344 17.875 30.550781 17.890625 C 30.535156 17.863281 30.632812 17.570312 30.460938 17.839844 Z M 25.910156 19.417969 C 25.933594 19.445312 25.902344 19.457031 26.09375 19.308594 C 26.007812 19.242188 26.007812 19.238281 25.910156 19.417969 Z M 28.199219 10.082031 C 28.359375 10.191406 28.324219 10.207031 28.363281 10.046875 C 28.355469 10.027344 28.351562 10.007812 28.34375 9.988281 C 28.316406 10.152344 28.253906 10 28.199219 10.082031 Z M 14.039062 14.445312 C 14.046875 14.535156 14.054688 14.605469 14.058594 14.679688 C 14.15625 14.636719 14.152344 14.546875 14.039062 14.445312 Z M 24.550781 14.195312 C 24.605469 14.132812 24.605469 14.132812 24.570312 13.988281 C 24.449219 14.113281 24.453125 14.070312 24.550781 14.195312 Z M 18.398438 18.378906 C 18.335938 18.4375 18.238281 18.425781 18.222656 18.535156 C 18.449219 18.5 18.410156 18.535156 18.398438 18.378906 Z M 29.976562 22.042969 C 29.996094 22.121094 29.996094 22.121094 30.109375 22.097656 C 29.96875 21.890625 29.917969 21.800781 29.976562 22.042969 Z M 30.121094 5.554688 C 29.828125 5.632812 30.011719 5.710938 30.082031 5.753906 C 30.09375 5.683594 30.105469 5.632812 30.121094 5.554688 Z M 15.777344 24.328125 C 15.824219 24.210938 15.894531 24.121094 15.851562 24.003906 C 15.878906 24.183594 15.648438 24.066406 15.777344 24.328125 Z M 33.882812 17.660156 C 33.894531 17.65625 33.90625 17.648438 33.917969 17.644531 C 33.863281 17.589844 33.941406 17.5 33.84375 17.453125 C 33.6875 17.632812 33.6875 17.582031 33.882812 17.660156 Z M 30.65625 4.9375 C 30.523438 4.925781 30.371094 5.003906 30.328125 5.105469 C 30.453125 5.082031 30.542969 5.011719 30.65625 4.9375 Z M 27.050781 13.96875 C 27.390625 14.019531 27.554688 13.59375 27.097656 13.871094 C 27.074219 13.886719 27.066406 13.929688 27.050781 13.96875 Z M 14.582031 19.203125 C 14.613281 19.011719 14.691406 19.152344 14.644531 18.96875 C 14.628906 18.914062 14.65625 18.867188 14.734375 18.871094 C 14.714844 18.800781 14.699219 18.738281 14.683594 18.675781 C 14.617188 18.679688 14.492188 18.984375 14.582031 19.203125 Z M 27.027344 14.0625 C 26.878906 13.941406 26.933594 13.949219 26.613281 14.054688 C 26.644531 14.28125 26.691406 14.207031 27.027344 14.0625 Z M 26.730469 13.152344 C 26.574219 13.082031 26.203125 13.117188 26.304688 13.257812 C 26.382812 13.367188 26.625 13.394531 26.730469 13.152344 Z M 28.820312 19.996094 C 28.90625 19.996094 28.976562 19.996094 29.046875 19.996094 C 29.0625 19.6875 28.496094 19.191406 28.820312 19.996094 Z M 29.285156 8.609375 C 28.390625 8.171875 27.839844 8.316406 29.195312 8.679688 C 29.238281 8.691406 29.269531 8.683594 29.285156 8.609375 Z M 25.355469 19.007812 C 25.527344 19.289062 25.953125 19.121094 26.023438 19.058594 C 25.9375 18.929688 25.875 18.886719 25.800781 18.929688 C 25.691406 18.992188 25.722656 18.925781 25.355469 19.007812 Z M 32.285156 23.546875 C 32.421875 23.558594 32.675781 23.609375 32.617188 23.421875 C 32.554688 23.210938 32.363281 23.144531 32.234375 23.230469 C 32.171875 23.273438 32.214844 23.339844 32.285156 23.546875 Z M 24.816406 18.605469 C 24.835938 18.648438 25.511719 18.761719 25.582031 18.632812 C 25.617188 18.566406 25.355469 18.140625 24.816406 18.605469 Z M 23.40625 14.820312 C 23.382812 14.6875 23.230469 14.816406 22.984375 14.820312 C 22.710938 14.824219 22.523438 15.21875 22.722656 15.210938 C 22.875 15.207031 23.355469 14.882812 23.40625 14.820312 Z M 32.953125 23.101562 C 32.808594 23.128906 32.582031 23.148438 32.6875 23.34375 C 32.800781 23.550781 32.867188 23.570312 33.152344 23.578125 C 33.371094 23.585938 33.238281 23.574219 33.175781 23.433594 C 33.121094 23.3125 33.066406 23.1875 32.953125 23.101562 Z M 33.273438 18.699219 C 33.320312 18.648438 33.382812 18.609375 33.367188 18.527344 C 33.359375 18.476562 33.191406 18.351562 33.136719 18.347656 C 33.113281 18.34375 33.074219 18.355469 33.070312 18.34375 C 33.003906 18.246094 32.894531 18.273438 32.808594 18.246094 C 32.519531 18.535156 32.609375 18.511719 33.273438 18.699219 Z M 23.511719 14.203125 C 23.125 14.269531 23.042969 14.179688 23.019531 14.40625 C 23.75 14.417969 25.574219 13.839844 23.511719 14.203125 Z M 31.136719 23.464844 C 31.117188 23.621094 31.667969 23.566406 32.179688 23.523438 C 31.925781 23.183594 31.949219 23.195312 31.429688 23.332031 C 31.234375 23.382812 31.402344 23.464844 31.136719 23.464844 Z M 31.929688 22.160156 C 31.675781 22.277344 31.910156 22.347656 31.890625 22.667969 C 31.882812 22.792969 32.003906 22.902344 32.148438 23.078125 C 32.207031 23.070312 32.277344 23.058594 32.355469 23.050781 C 32.3125 22.859375 32.042969 22.34375 31.929688 22.160156 Z M 20.429688 14.003906 C 20.617188 13.933594 20.582031 13.941406 20.261719 13.238281 C 20.019531 12.707031 20.082031 12.8125 19.964844 12.664062 C 19.28125 11.800781 20.175781 13.695312 20.429688 14.003906 Z M 19.46875 15.667969 C 19.132812 15.476562 19.089844 15.417969 18.976562 15.535156 C 18.863281 15.652344 18.8125 15.613281 18.664062 15.679688 C 18.542969 15.734375 18.128906 16.027344 18.304688 16.15625 C 18.667969 16.15625 18.738281 15.839844 19.113281 15.867188 C 19.269531 15.875 19.355469 15.773438 19.46875 15.667969 Z M 17.886719 18.320312 C 17.441406 18.484375 17.351562 18.914062 17.261719 19.449219 C 17.203125 19.808594 17.574219 19.195312 17.757812 18.992188 C 18.113281 18.605469 18.226562 18.699219 17.945312 18.519531 C 17.882812 18.589844 17.933594 18.71875 17.796875 18.769531 C 17.824219 18.621094 17.851562 18.488281 17.886719 18.320312 Z M 31.050781 23.511719 C 31.027344 23.371094 31.003906 23.292969 30.75 23.328125 C 29.230469 23.539062 28.988281 23.589844 29.113281 23.75 C 29.179688 23.832031 30.972656 23.582031 31.050781 23.511719 Z M 28.355469 21.640625 C 28.75 21.785156 29.957031 21.605469 29.824219 21.375 C 29.660156 21.089844 29.65625 21.167969 29.613281 21.234375 C 29.410156 21.121094 29.332031 21.304688 29.113281 21.25 C 29.050781 21.328125 28.953125 21.3125 28.871094 21.339844 C 28.824219 21.355469 28.765625 21.402344 28.730469 21.390625 C 28.605469 21.351562 28.648438 21.386719 28.355469 21.640625 Z M 24.730469 12.542969 C 24.777344 12.632812 24.789062 12.597656 25.511719 12.683594 C 26.070312 12.753906 26.554688 12.941406 26.84375 12.539062 C 26.0625 12.410156 26.152344 12.398438 26.230469 12.617188 C 26.136719 12.636719 25.964844 12.535156 25.921875 12.5 C 25.785156 12.382812 25.667969 12.378906 25.03125 12.363281 C 24.898438 12.363281 24.792969 12.414062 24.730469 12.542969 Z M 33.886719 23.613281 C 33.996094 23.574219 34.023438 23.726562 33.613281 22.746094 C 32.597656 20.328125 33.289062 23.828125 33.886719 23.613281 Z M 26.90625 10.175781 C 27.007812 10.355469 27.003906 10.265625 27.640625 10.453125 C 28.382812 10.667969 28.769531 11.050781 28.742188 10.757812 C 28.714844 10.507812 28.476562 10.628906 28.46875 10.492188 C 28.457031 10.3125 27.316406 10.03125 27.277344 10.019531 C 27.210938 10.003906 27.335938 10.035156 26.90625 10.175781 Z M 26.457031 11.800781 C 25.902344 11.792969 26.0625 11.464844 25.511719 11.875 C 25.375 11.976562 26.113281 12.058594 26.125 12.058594 C 27.03125 12.105469 26.242188 12.019531 27.027344 12.28125 C 27.339844 12.386719 27.410156 12.117188 27.691406 12.109375 C 27.921875 12.105469 27.335938 11.808594 26.457031 11.800781 Z M 18.976562 19.292969 C 19.085938 19.730469 19.3125 19.589844 19.914062 20.398438 C 20.148438 20.710938 20.03125 20.726562 20.175781 20.78125 C 20.285156 20.820312 20.347656 20.671875 20.363281 20.554688 C 20.472656 19.636719 20.550781 20.195312 18.976562 19.292969 Z M 23.617188 13.53125 C 23.859375 13.613281 24.808594 13.292969 25.378906 13.359375 C 25.730469 13.398438 25.746094 13.296875 25.933594 13.140625 C 25.820312 13.089844 25.949219 13.125 25.636719 13.097656 C 24.324219 12.992188 24.230469 12.8125 23.617188 13.53125 Z M 19.890625 21.097656 C 19.773438 21.167969 18.855469 19.988281 18.703125 20.03125 C 18.449219 20.097656 19.558594 21.476562 19.90625 22.007812 C 20.105469 22.3125 20.097656 21.753906 20.132812 21.453125 C 20.148438 21.296875 20.195312 21.09375 20.164062 21.039062 C 20.03125 20.796875 19.761719 20.621094 19.890625 21.097656 Z M 28.714844 23.1875 C 29.054688 23.324219 29.105469 23.082031 30.472656 23.121094 C 30.484375 23.121094 31.40625 23.097656 31.417969 23.097656 C 31.917969 23.078125 31.835938 23.109375 31.648438 22.71875 C 31.453125 22.304688 28.882812 23.054688 28.714844 23.1875 Z M 25.839844 5.207031 C 25.757812 5.085938 25.449219 5.3125 25.40625 5.390625 C 25.367188 5.460938 25.492188 5.273438 24.96875 5.699219 C 23.3125 7.039062 23.5625 7.328125 23.800781 7.066406 C 23.890625 6.972656 24.246094 6.667969 24.421875 6.625 C 24.335938 6.914062 23.796875 7.457031 23.851562 7.519531 C 24.089844 7.441406 24.15625 7.535156 24.214844 7.335938 C 24.222656 7.3125 24.554688 6.828125 24.675781 6.269531 C 24.699219 6.160156 24.769531 6.097656 24.855469 6.035156 C 24.898438 6.148438 24.898438 6.148438 24.863281 6.226562 C 24.691406 6.601562 24.761719 7.011719 24.664062 7.140625 C 24.585938 7.246094 24.636719 7.347656 24.648438 7.453125 C 24.664062 7.441406 25.6875 5.484375 25.839844 5.207031 Z M 14.839844 16.683594 C 14.734375 16.890625 14.828125 17.011719 14.824219 17.15625 C 15.042969 17.148438 15 17.066406 15.289062 16.933594 C 15.816406 16.695312 17.917969 16.210938 17.953125 16.222656 C 18.050781 15.957031 18.019531 15.929688 18.1875 15.902344 C 18.238281 15.738281 18.273438 15.734375 18.089844 15.78125 C 16.875 16.109375 16.871094 16.414062 16.730469 16.371094 C 16.710938 16.121094 16.609375 16.523438 18.035156 15.253906 C 17.910156 15.035156 16.816406 15.992188 16.808594 16 C 16.101562 16.605469 16.90625 15.617188 16.609375 15.621094 C 15.800781 15.628906 16.097656 15.84375 15.707031 16.289062 C 15.699219 16.226562 15.691406 16.171875 15.679688 16.105469 C 15.570312 16.175781 15.550781 16.269531 15.550781 16.359375 C 15.546875 16.683594 15.390625 16.585938 15.457031 16.390625 C 15.597656 15.945312 15.59375 15.851562 15.742188 15.667969 C 16.738281 14.457031 15.542969 15.339844 14.839844 16.683594 Z M 18.761719 23.113281 C 18.722656 23.144531 18.804688 23.214844 18.09375 22.421875 C 17.921875 22.503906 19.007812 24.027344 19.480469 24.429688 C 19.738281 24.644531 19.691406 24.046875 19.695312 23.828125 C 19.699219 23.703125 19.910156 22.707031 19.917969 22.695312 C 20.015625 22.488281 19.867188 22.484375 19.730469 22.351562 C 18.964844 21.589844 19.082031 21.402344 18.796875 21.238281 C 18.867188 21.648438 19.347656 22.757812 19.058594 22.238281 C 18.632812 21.476562 18.535156 21.515625 18.902344 22.414062 C 19.0625 22.804688 18.613281 22.265625 18.390625 21.84375 C 18.308594 21.695312 17.964844 21.457031 18.761719 23.113281 Z M 24.09375 8.242188 C 23.972656 7.886719 24.058594 8.238281 23.910156 8.300781 C 23.890625 8.308594 23.886719 8.363281 23.875 8.40625 C 24.035156 8.40625 23.933594 8.484375 24.015625 8.5 C 24.117188 8.273438 24.105469 8.320312 24.09375 8.242188 Z M 16.027344 23.710938 C 16.214844 23.757812 16.144531 23.785156 16.273438 23.542969 C 16.296875 23.492188 16.308594 23.449219 16.246094 23.414062 C 15.910156 23.871094 15.945312 23.722656 16.050781 23.984375 C 16.078125 23.972656 16.113281 23.964844 16.113281 23.953125 C 16.117188 23.917969 16.109375 23.851562 16.109375 23.851562 C 15.992188 23.851562 16.074219 23.746094 16.027344 23.710938 Z M 28.015625 9.945312 C 28.035156 9.984375 28.035156 10.042969 28.128906 10.003906 C 27.808594 9.851562 28.03125 9.820312 27.929688 9.769531 C 27.582031 9.867188 27.785156 9.945312 27.804688 9.933594 C 27.878906 9.878906 27.945312 9.933594 28.015625 9.945312 Z M 29.207031 20.503906 C 29.167969 20.390625 29.183594 20.402344 29.144531 20.421875 C 29.285156 20.589844 29.101562 20.59375 29.273438 20.65625 C 29.257812 20.488281 29.273438 20.535156 29.207031 20.503906 Z M 28.757812 9.191406 C 28.734375 9.195312 28.707031 9.195312 28.6875 9.199219 C 28.679688 9.144531 28.679688 9.144531 28.585938 9.167969 C 28.621094 9.175781 28.652344 9.183594 28.6875 9.195312 C 28.695312 9.285156 28.707031 9.289062 28.800781 9.253906 C 28.742188 9.175781 28.738281 9.199219 28.804688 9.15625 C 28.824219 9.191406 28.84375 9.222656 28.875 9.285156 C 28.867188 9.222656 28.867188 9.1875 28.855469 9.164062 C 28.828125 9.109375 28.726562 9.105469 28.757812 9.191406 Z M 29.109375 9.398438 C 29.082031 9.324219 29.054688 9.300781 29.007812 9.351562 C 29 9.269531 29 9.269531 28.917969 9.242188 C 29.023438 9.367188 28.988281 9.339844 29.109375 9.398438 Z M 30.894531 4.6875 C 31.621094 4.910156 31.921875 4.296875 32.546875 4.367188 C 31.242188 4.925781 31.851562 4.660156 32.617188 4.96875 C 32.777344 5.03125 32.609375 5.1875 32.457031 5.074219 C 32.433594 5.058594 31.902344 4.949219 31.890625 4.945312 C 31.800781 4.929688 31.789062 5.023438 31.878906 5.054688 C 31.945312 5.078125 32.679688 5.347656 32.734375 5.394531 C 33.394531 5.957031 33.292969 5.863281 33.324219 5.929688 C 33.292969 5.929688 33.253906 5.945312 33.246094 5.933594 C 32.953125 5.585938 32.316406 5.671875 32.0625 5.414062 C 31.96875 5.320312 31.835938 5.328125 31.714844 5.324219 C 31.6875 5.324219 31.660156 5.386719 31.621094 5.429688 C 30.175781 5.375 30.824219 5.507812 30.554688 5.796875 C 30.414062 5.953125 32.328125 5.988281 32.382812 6.390625 C 31.855469 6.25 31.125 6.027344 30.507812 6.246094 C 30.828125 6.671875 31.296875 6.589844 31.261719 6.792969 C 31.246094 6.859375 31.359375 6.90625 31.308594 6.949219 C 31.21875 6.898438 30.816406 6.648438 30.648438 6.6875 C 30.578125 6.703125 29.835938 6.460938 30.96875 7.027344 C 30.9375 7.113281 30.585938 6.886719 30.515625 6.890625 C 30.175781 6.894531 29.394531 6.472656 29.347656 6.671875 C 29.316406 6.808594 29.4375 6.816406 29.507812 6.832031 C 29.707031 6.875 29.554688 6.96875 29.972656 7.167969 C 30.617188 7.472656 30.984375 7.714844 31.191406 8.386719 C 30.707031 8.078125 30.773438 7.597656 29.605469 7.203125 C 29.46875 7.15625 29.496094 7.175781 29.511719 7.367188 C 29.59375 7.378906 29.625 7.375 29.625 7.402344 C 29.632812 7.605469 30.484375 7.917969 30.433594 8.015625 C 29.785156 7.839844 29.875 7.859375 29.316406 7.605469 C 29.242188 7.703125 29.1875 7.742188 29.613281 7.988281 C 30.359375 8.417969 30.785156 8.886719 30.792969 8.898438 C 31.042969 9.398438 30.882812 9.152344 30.335938 9.019531 C 30.261719 9.085938 30.300781 9.085938 30.796875 9.628906 C 30.289062 9.410156 29.789062 9.261719 29.265625 9.183594 C 29.242188 9.257812 29.546875 9.707031 29.726562 9.746094 C 29.8125 9.765625 29.894531 9.824219 29.984375 9.867188 C 29.585938 9.871094 29.203125 9.78125 28.816406 9.734375 C 28.769531 9.953125 28.941406 9.878906 29.140625 10 C 28.515625 9.890625 28.535156 9.867188 28.503906 9.949219 C 29.0625 10.5625 28.910156 10.097656 29.148438 10.574219 C 28.980469 10.480469 29 10.375 28.863281 10.378906 C 28.800781 10.378906 28.878906 10.277344 28.722656 10.332031 C 28.671875 10.46875 28.964844 10.796875 29.007812 10.828125 C 29.097656 10.894531 29.09375 11.011719 29.1875 11.058594 C 29.152344 11.222656 28.714844 11.1875 28.625 11.160156 C 28.378906 11.085938 28.503906 11.292969 28.378906 11.234375 C 27.835938 10.992188 27.878906 11.007812 27.980469 11.25 C 27.890625 11.210938 27.824219 11.210938 27.773438 11.160156 C 27.65625 11.046875 27.589844 11.152344 27.535156 11.078125 C 27.328125 10.792969 26.796875 11.128906 27.378906 11.378906 C 27.390625 11.382812 28.175781 11.617188 28.210938 11.628906 C 28.644531 11.757812 28.5625 11.902344 28.441406 11.886719 C 27.824219 11.816406 27.777344 11.769531 27.945312 12.054688 C 27.652344 12.234375 27.609375 12.242188 27.628906 12.320312 C 27.757812 12.84375 28.226562 12.210938 28.691406 11.957031 C 29.660156 11.421875 29.316406 11.769531 29.238281 11.800781 C 29.023438 11.894531 28.851562 12.042969 28.660156 12.167969 C 28.234375 12.445312 28.148438 12.472656 28.167969 12.617188 C 28.171875 12.664062 28.136719 12.695312 28.082031 12.6875 C 27.945312 12.660156 27.84375 12.75 27.730469 12.796875 C 27.632812 12.835938 27.625 12.941406 27.679688 13.078125 C 28.015625 13.046875 27.347656 13.429688 28.417969 12.921875 C 29.671875 12.332031 29.660156 12.246094 29.714844 12.324219 C 29.515625 12.566406 29.292969 12.671875 28.886719 12.914062 C 28.9375 13.117188 29.335938 12.941406 28.765625 13.296875 C 28.664062 13.359375 28.539062 13.359375 28.449219 13.449219 C 28.371094 13.53125 28.273438 13.597656 28.179688 13.675781 C 28.292969 13.785156 28.390625 13.730469 28.488281 13.6875 C 28.5 13.683594 30.386719 13.007812 30.515625 13.117188 C 29.230469 13.601562 30.003906 13.425781 28.988281 13.859375 C 28.839844 13.921875 28.910156 14.015625 29.027344 13.996094 C 32.429688 13.425781 31.675781 13.683594 31.5 13.695312 C 31.472656 13.695312 31.433594 13.679688 31.417969 13.695312 C 31.234375 13.839844 30.226562 13.980469 30.183594 14.160156 C 30.335938 14.21875 30.527344 14.109375 30.652344 14.277344 C 31.191406 14.117188 32.664062 14.140625 33.1875 14.136719 C 35.089844 14.128906 34.195312 14.285156 33.574219 14.265625 C 33.316406 14.257812 32.726562 14.417969 32.503906 14.402344 C 32.15625 14.375 32.308594 14.542969 32.421875 14.53125 C 32.726562 14.492188 33.027344 14.566406 33.625 14.574219 C 33.609375 14.816406 33.257812 14.6875 32.921875 14.839844 C 32.476562 15.039062 34.867188 14.816406 34.878906 14.816406 C 34.992188 14.808594 35.453125 14.925781 35.167969 14.957031 C 32.929688 15.203125 32.453125 15.054688 32.042969 15.335938 C 32.304688 15.398438 33.003906 15.359375 33.644531 15.46875 C 33.714844 15.476562 33.730469 15.46875 35.074219 15.410156 C 35.570312 15.390625 35.550781 15.550781 35.214844 15.566406 C 34.304688 15.601562 30.6875 15.644531 32.085938 15.742188 C 34.355469 15.898438 34.21875 15.875 36.867188 16.183594 C 36.652344 16.464844 34.558594 15.953125 33.257812 16.132812 C 33.585938 16.320312 34.777344 16.273438 35.675781 16.585938 C 36.191406 16.765625 35.578125 16.714844 35.472656 16.695312 C 34.636719 16.527344 33.148438 16.753906 33.605469 16.789062 C 33.84375 16.804688 35.679688 16.953125 35.796875 17.15625 C 35.699219 17.1875 34.496094 17.132812 34.140625 16.988281 C 33.929688 16.90625 33.78125 16.933594 33.742188 16.933594 C 33.886719 17.207031 34.574219 17.148438 35.503906 17.5 C 35.285156 17.679688 34.859375 17.417969 36.273438 17.769531 C 36.542969 17.835938 36.703125 17.875 36.792969 18.046875 C 36.015625 18.121094 35.253906 17.539062 34.847656 17.640625 C 35.351562 18.050781 36.144531 18.207031 36.464844 18.714844 C 36.445312 18.738281 36.453125 18.757812 36.351562 18.679688 C 35.488281 17.996094 35.109375 18.144531 34.609375 17.777344 C 34.234375 17.507812 34.453125 18.695312 34.238281 18.847656 C 34.09375 18.773438 34.152344 18.648438 34.148438 18.175781 C 33.566406 18.34375 34.105469 18.921875 34.460938 19.320312 C 34.332031 19.410156 33.71875 18.828125 33.671875 18.78125 C 33.605469 18.703125 33.429688 19.007812 33.386719 19.085938 C 33.863281 19.308594 33.832031 19.238281 33.847656 19.398438 C 33.894531 19.347656 33.933594 19.351562 33.976562 19.394531 C 34.535156 19.945312 34.84375 19.734375 34.054688 20.035156 C 33.527344 20.234375 34.582031 20.300781 35.117188 20.882812 C 35.066406 21.011719 34.449219 20.964844 34.152344 20.820312 C 34.058594 20.777344 33.851562 20.707031 33.621094 20.710938 C 33.828125 21.019531 34.984375 21.832031 35.367188 22.351562 C 34.96875 22.367188 34.703125 21.824219 34.304688 21.613281 C 34.332031 21.785156 34.617188 22.441406 34.789062 22.699219 C 34.921875 22.898438 34.953125 23.136719 35.0625 23.347656 C 35.109375 23.441406 35.085938 23.398438 35.265625 23.703125 C 34.796875 23.824219 34.308594 22.75 34.15625 22.445312 C 33.84375 22.628906 34.382812 23.535156 34.332031 23.691406 C 34.308594 23.773438 34.238281 23.609375 34.332031 23.996094 C 34.355469 24.078125 34.316406 24.148438 34.304688 24.226562 C 34.292969 24.292969 34.34375 24.371094 34.363281 24.441406 C 34.378906 24.507812 34.265625 24.53125 34.230469 24.441406 C 34.109375 24.140625 34.050781 24.183594 34.011719 23.863281 C 33.976562 23.566406 33.460938 23.71875 33.152344 23.824219 C 32.480469 24.050781 31.957031 23.921875 31.671875 24.089844 C 32.375 24.246094 33.90625 24.3125 34.058594 24.566406 C 33.8125 24.6875 33.628906 24.472656 32.285156 24.539062 C 32.085938 24.550781 32.03125 24.648438 31.316406 24.523438 C 30.785156 24.425781 30.285156 24.570312 30.46875 24.664062 C 30.644531 24.753906 31.414062 24.929688 31.425781 24.929688 C 35.550781 25.261719 32.078125 25.242188 31.710938 25.207031 C 31.65625 25.203125 31.214844 25.164062 31.128906 25.171875 C 31.007812 25.183594 31.023438 25.308594 31.117188 25.335938 C 31.15625 25.347656 31.273438 25.363281 31.289062 25.386719 C 31.367188 25.523438 31.609375 25.421875 31.722656 25.640625 C 31.777344 25.746094 32 25.789062 32.109375 25.816406 C 32.382812 25.886719 32.417969 25.945312 32.429688 25.929688 C 32.496094 25.84375 32.550781 25.933594 32.605469 25.945312 C 32.945312 26.027344 33.277344 26.132812 33.628906 26.152344 C 33.941406 26.171875 33.742188 26.339844 33.625 26.339844 C 32.773438 26.339844 30.441406 25.933594 29.925781 25.324219 C 30.382812 25.21875 30.148438 25.300781 29.972656 24.976562 C 29.929688 24.894531 29.863281 24.90625 29.398438 24.800781 C 29.3125 24.785156 28.964844 24.488281 28.886719 24.371094 C 28.550781 23.875 27.21875 23.199219 27.207031 23.191406 C 23.664062 20.765625 22.296875 17.949219 22.261719 18.722656 C 22.261719 18.734375 22.425781 19.835938 22.273438 20.132812 C 22.269531 20.144531 22.1875 20.84375 22.214844 21.039062 C 22.238281 21.203125 22.167969 21.355469 22.105469 21.511719 C 21.800781 20.53125 21.828125 17.578125 21.523438 19.835938 C 19.402344 35.535156 21.183594 28.339844 20.625 42.765625 C 20.425781 48 21.25 61.863281 21.285156 62.226562 C 21.285156 62.238281 21.703125 66.222656 21.429688 66.753906 C 21.191406 67.214844 21.449219 67.445312 21.222656 67.476562 C 21.078125 67.496094 21.050781 67.484375 20.984375 67.363281 C 20.9375 67.273438 20.914062 67.269531 20.472656 67.484375 C 19.90625 67.757812 19.488281 67.433594 18.671875 67.628906 C 18.53125 67.664062 18.304688 67.484375 18.375 67.191406 C 18.550781 66.453125 18.394531 66.632812 18.683594 65.699219 C 19.011719 64.644531 19.078125 64.875 19.429688 63.527344 C 19.664062 62.648438 18.851562 51.523438 18.839844 51.1875 C 18.753906 48.800781 19.101562 47.625 18.960938 45.792969 C 18.949219 45.664062 18.875 45.742188 18.847656 45.472656 C 18.746094 44.480469 19.011719 41.804688 19.011719 41.792969 C 19.097656 40.714844 18.757812 37.953125 19.023438 34.289062 C 19.089844 33.433594 18.902344 33.011719 18.996094 32.40625 C 19.390625 29.886719 19.152344 29.25 19.375 27.714844 C 19.378906 27.703125 19.519531 25.964844 19.519531 25.953125 C 19.550781 24.316406 19.980469 25.171875 18.207031 23.507812 C 17.820312 23.148438 18.109375 23.671875 18.390625 24.113281 C 18.808594 24.761719 19.023438 24.800781 18.222656 24.34375 C 18.183594 24.570312 19.054688 25.21875 19.136719 25.28125 C 19.011719 25.304688 18.1875 24.789062 18.046875 24.6875 C 17.929688 24.605469 17.828125 24.398438 17.6875 24.371094 C 17.761719 24.855469 18.035156 24.90625 18.078125 25.269531 C 17.683594 24.890625 17.609375 24.824219 17.5625 24.882812 C 17.507812 24.949219 17.558594 25.058594 17.605469 25.125 C 18.457031 26.355469 18.746094 26.359375 17.777344 25.882812 C 17.546875 26.015625 17.953125 26.261719 18.203125 26.851562 C 17.828125 26.679688 17.816406 26.632812 17.660156 26.828125 C 17.523438 27.003906 17.652344 27.046875 18.078125 27.453125 C 19.285156 28.605469 18.242188 27.652344 17.625 27.558594 C 17.566406 27.710938 17.6875 27.691406 18.339844 28.484375 C 18.125 28.457031 18 28.324219 17.71875 28.242188 C 17.550781 28.195312 17.621094 28.359375 17.601562 28.386719 C 17.429688 28.625 18.230469 29.195312 18.371094 29.542969 C 17.769531 29.1875 18.292969 29.558594 16.894531 28.316406 C 16.71875 28.511719 18.359375 30.03125 17.757812 29.679688 C 17.734375 29.667969 16.625 28.632812 16.988281 29.136719 C 18.59375 31.367188 18.785156 31.480469 17.972656 30.90625 C 17.773438 30.765625 17.367188 30.1875 17.117188 30.078125 C 17.125 30.121094 17.160156 30.394531 17.242188 30.484375 C 17.382812 30.640625 17.59375 31.277344 17.742188 31.402344 C 17.90625 31.546875 17.929688 31.578125 18.015625 31.777344 C 17.976562 31.769531 17.628906 31.640625 17.527344 31.515625 C 17.484375 31.464844 17.203125 31.078125 17.226562 31.238281 C 17.382812 32.179688 18.304688 33.425781 18.476562 33.679688 C 18.5625 33.808594 18.382812 34.003906 17.636719 32.765625 C 17.121094 31.910156 16.722656 31.144531 17.042969 32.265625 C 17.261719 33.027344 16.738281 31.785156 17.617188 34.105469 C 17.894531 34.84375 16.296875 32.222656 16.210938 29.574219 C 16.203125 29.261719 16.160156 28.683594 16.074219 28.992188 C 15.894531 29.660156 16.046875 29.804688 15.902344 29.492188 C 15.800781 29.9375 15.863281 30.816406 15.726562 29.992188 C 15.167969 26.726562 15.339844 27.195312 15.351562 26.265625 C 14.984375 26.472656 14.78125 28.445312 14.753906 28.894531 C 14.648438 30.554688 14.59375 28.863281 14.613281 28.632812 C 14.820312 26.3125 15.15625 26.332031 15.101562 25.433594 C 15.039062 24.328125 15.351562 23.972656 15.65625 23.238281 C 16.96875 20.085938 17.03125 20.625 17.550781 19.945312 C 17.59375 19.929688 17.59375 20.054688 17.660156 19.964844 C 17.46875 19.777344 18.328125 18.996094 17.054688 20.046875 C 17.132812 18.878906 17.191406 19.242188 17.167969 19.105469 C 17.101562 18.660156 16.703125 19.570312 16.539062 19.992188 C 16.46875 20.167969 16.449219 20.007812 16.355469 20.054688 C 16.191406 20.140625 15.957031 20.992188 15.886719 21.398438 C 15.863281 21.53125 15.773438 21.617188 15.679688 21.707031 C 15.796875 20.566406 15.78125 20.449219 15.859375 20.273438 C 15.929688 20.117188 15.867188 19.945312 15.683594 20.265625 C 15.464844 20.648438 15.441406 20.695312 15.398438 20.730469 C 15.210938 20.894531 15.300781 21.015625 15.195312 21.035156 C 15.269531 20.398438 15.332031 20.359375 15.015625 20.769531 C 14.84375 20.285156 15.222656 20.582031 14.949219 19.332031 C 14.914062 19.167969 14.75 19.1875 14.71875 19.300781 C 14.394531 20.40625 14.6875 20.269531 14.527344 20.640625 C 14.417969 20.484375 14.339844 20.324219 14.324219 20.117188 C 14.164062 20.355469 14.273438 21.007812 14.144531 21.113281 C 14.003906 20.449219 14.253906 19.816406 14.132812 19.554688 C 13.742188 20.007812 13.90625 21.253906 13.734375 21.519531 C 13.617188 20.914062 13.855469 20.445312 13.679688 20.410156 C 13.539062 20.382812 13.503906 20.773438 13.441406 20.976562 C 13.460938 20.054688 13.621094 20.191406 13.574219 19.757812 C 13.113281 19.90625 12.65625 23.675781 12.644531 21.789062 C 12.644531 21.222656 13.074219 20.378906 12.933594 20.328125 C 12.148438 21.324219 11.980469 23.703125 11.976562 22.996094 C 11.964844 21.472656 12.527344 20.496094 12.5625 20.054688 C 12.257812 20.289062 12.019531 20.996094 12 21 C 11.902344 21.027344 11.484375 21.398438 11.246094 22.179688 C 11.113281 22.617188 11.109375 22.285156 10.875 22.910156 C 10.777344 22.796875 11.011719 21.671875 10.980469 21.328125 C 10.070312 22.164062 10.28125 25.027344 10.074219 22.429688 C 9.824219 22.535156 9.851562 22.679688 9.710938 24.207031 C 9.699219 24.375 9.539062 23.925781 9.558594 23.773438 C 9.597656 23.476562 9.453125 23.609375 9.410156 23.644531 C 9.394531 23.421875 9.496094 23.203125 9.375 22.984375 C 9.09375 23.265625 9.109375 24.167969 9.09375 23.414062 C 8.953125 23.570312 8.976562 23.558594 8.851562 24.605469 C 8.65625 24.507812 8.890625 22.289062 8.363281 25.3125 C 8.316406 25.578125 8.277344 25.363281 8.296875 25.230469 C 8.699219 22.707031 8.179688 24.492188 8.074219 24.527344 C 8.339844 22.195312 8.8125 21.960938 9.167969 21.28125 C 9.992188 19.703125 10.714844 19.761719 11.550781 18.957031 C 11.726562 18.789062 11.65625 18.710938 11.960938 18.570312 C 14.945312 17.203125 14.425781 17.417969 14.652344 17.222656 C 14.457031 16.445312 16.316406 14.839844 14.742188 15.9375 C 14.671875 15.988281 14.640625 16.160156 14.488281 16.1875 C 14.464844 16.273438 14.371094 16.386719 14.238281 16.378906 C 14.230469 16.71875 13.8125 16.917969 14.203125 16.371094 C 15.046875 15.183594 15.304688 14.824219 14.199219 15.792969 C 13.410156 16.488281 13.496094 16.933594 13.367188 16.902344 C 13.421875 16.628906 13.671875 16.242188 13.683594 16.027344 C 13.6875 15.894531 13.917969 15.582031 14.003906 15.441406 C 14.046875 15.375 13.914062 15.199219 13.824219 15.339844 C 13.792969 15.390625 13.765625 15.445312 13.734375 15.496094 C 13.636719 15.457031 13.613281 15.460938 13.558594 15.53125 C 13.292969 15.878906 12.886719 16.328125 12.90625 16.757812 C 12.660156 16.785156 12.972656 16.378906 12.957031 16.09375 C 12.890625 14.996094 13.09375 14.613281 13.027344 14.46875 C 12.707031 14.496094 12.644531 14.332031 11.710938 15.734375 C 11.5625 15.960938 11.523438 15.835938 11.390625 16.054688 C 11.269531 16.25 11.269531 16.101562 11.117188 16.269531 C 11.074219 16.316406 11.042969 16.375 10.988281 16.421875 C 11.066406 16.003906 11.242188 15.625 11.429688 15.25 C 11.277344 15.183594 11.167969 15.445312 10.898438 15.453125 C 11.132812 15.253906 11.28125 15.230469 11.542969 14.980469 C 11.15625 14.734375 11.550781 13.882812 10.75 15.09375 C 10.703125 15.164062 10.15625 15.757812 10.082031 15.71875 C 10.246094 14.703125 10.929688 13.71875 11.539062 12.890625 C 11.203125 13.023438 10.605469 13.917969 10.519531 14.003906 C 10.007812 14.507812 10.199219 14.828125 10.050781 14.269531 C 9.910156 13.753906 10.273438 13.441406 9.863281 13.84375 C 9.574219 14.128906 9.585938 13.96875 9.480469 14.085938 C 9.015625 14.601562 8.863281 14.710938 8.78125 15.179688 C 8.742188 15.425781 8.644531 15.296875 8.667969 15.148438 C 8.71875 14.78125 8.710938 14.972656 8.769531 14.484375 C 8.285156 14.917969 8.371094 15.410156 8.125 15.347656 C 8.339844 14.839844 8.914062 13.652344 9.363281 13.324219 C 9.957031 12.886719 10.148438 12.449219 10.78125 11.996094 C 10.988281 11.847656 11.1875 11.941406 11.574219 11.726562 C 12.132812 11.417969 12.566406 11.601562 13.007812 11.453125 C 13.226562 11.382812 13.402344 11.476562 13.703125 11.632812 C 13.894531 11.730469 14.113281 11.445312 14.410156 11.792969 C 14.515625 11.910156 14.667969 11.898438 14.953125 12.019531 C 16.164062 12.53125 15.6875 12.363281 15.828125 12.40625 C 16.375 12.574219 16.453125 13.078125 16.648438 12.996094 C 16.796875 12.929688 16.722656 13.003906 17.519531 13.277344 C 17.808594 13.371094 17.667969 13.539062 18.441406 13.902344 C 18.847656 14.097656 19.011719 14.273438 19.207031 14.449219 C 19.339844 14.570312 19.324219 14.410156 19.726562 14.332031 C 20.035156 14.269531 20.085938 14.203125 19.253906 13.148438 C 19.015625 12.847656 18.960938 12.597656 19.609375 13.457031 C 21.386719 15.808594 18.976562 11.949219 19.078125 10.730469 C 19.175781 11.042969 19.332031 11.5625 19.46875 11.871094 C 19.570312 12.089844 19.921875 12.328125 19.78125 11.949219 C 19.472656 11.117188 19.167969 9.601562 19.28125 9.578125 C 19.617188 10.789062 19.421875 10.203125 19.960938 11.160156 C 20.242188 10.320312 19.460938 9.707031 19.292969 8.753906 C 19.242188 8.460938 19.121094 7.742188 19.335938 7.53125 C 19.339844 7.535156 19.429688 8.5625 19.726562 9.035156 C 19.992188 9.457031 20.238281 10.335938 20.476562 10.644531 C 20.527344 9.964844 20.007812 9.214844 19.949219 8.949219 C 19.132812 5.292969 19.765625 7.578125 19.777344 7.589844 C 19.921875 7.761719 19.972656 7.96875 20.027344 8.179688 C 20.183594 8.765625 20.25 8.582031 20.234375 8.449219 C 19.871094 5.507812 19.382812 5.625 19.585938 5.335938 C 19.808594 5.777344 20.546875 8.753906 20.386719 7.507812 C 20.339844 7.132812 20.300781 7.082031 20.394531 6.820312 C 20.558594 6.34375 20.507812 6.714844 20.15625 5.183594 C 20.136719 5.09375 20.25 5.164062 20.253906 5.269531 C 20.257812 5.339844 20.648438 6.722656 20.652344 6.734375 C 20.992188 6.214844 20.058594 4.476562 20.539062 4.234375 C 20.585938 4.210938 20.40625 4.160156 21.109375 6.394531 C 21.195312 6.660156 21.257812 6.113281 21.207031 5.964844 C 20.929688 5.164062 20.925781 3.90625 20.964844 4.191406 C 21.152344 5.609375 21.316406 5.386719 21.3125 5.296875 C 21.296875 4.773438 21.230469 4.808594 21.394531 4.894531 C 21.59375 4.816406 21.402344 4.40625 21.429688 3.605469 C 21.441406 3.324219 21.609375 3.035156 21.59375 3.222656 C 21.480469 4.820312 21.539062 4.550781 21.839844 4.703125 C 22.328125 3.222656 21.976562 3.578125 22.148438 2.921875 C 22.1875 2.777344 22.242188 2.804688 22.226562 2.851562 C 22.175781 3.007812 22.226562 3.074219 22.402344 3.902344 C 22.46875 4.207031 22.617188 3.617188 22.851562 3.28125 C 22.925781 3.175781 23.027344 3.082031 23.03125 2.9375 C 23.035156 2.894531 23.066406 2.851562 23.089844 2.789062 C 23.207031 2.960938 23.066406 2.800781 23.152344 3.402344 C 23.199219 3.359375 23.234375 3.34375 23.246094 3.320312 C 23.960938 1.914062 24.238281 1.804688 24.179688 1.953125 C 24.175781 1.96875 23.601562 3.230469 23.589844 3.246094 C 23.5 3.351562 23.582031 3.5 23.65625 3.378906 C 24.59375 1.898438 24.78125 2.273438 24.671875 2.386719 C 24.511719 2.550781 23.953125 3.183594 24.027344 3.394531 C 25.816406 1.464844 26.417969 1.421875 25.160156 2.632812 C 25.042969 2.75 24.996094 2.902344 25.171875 2.769531 C 25.695312 2.371094 25.582031 2.433594 26.140625 2.066406 C 26.257812 1.988281 26.261719 2.109375 26.148438 2.195312 C 25.976562 2.332031 25.804688 2.441406 25.644531 2.605469 C 25.542969 2.707031 25.613281 2.777344 25.761719 2.675781 C 27.167969 1.664062 25.476562 3.078125 25.496094 3.246094 C 26.707031 2.785156 25.457031 3.457031 25.238281 3.910156 C 25.511719 3.945312 25.613281 3.59375 25.820312 3.746094 C 25.433594 4.320312 25.460938 3.839844 24.660156 5.109375 C 24.816406 5.210938 24.96875 5.027344 24.703125 5.257812 C 24.753906 5.441406 24.699219 5.417969 24.960938 5.316406 C 25.1875 5.230469 25.058594 5.382812 25.320312 5.214844 C 25.683594 4.984375 25.917969 5.128906 26.035156 4.96875 C 26.246094 4.6875 26.226562 4.726562 26.253906 4.746094 C 25.679688 5.867188 25.71875 5.667969 25.898438 5.914062 C 26.121094 5.785156 26.023438 5.765625 26.269531 5.441406 C 26.890625 4.628906 26.835938 4.65625 27.027344 4.714844 C 27.207031 4.769531 27.421875 4.367188 27.691406 4.316406 C 27.746094 4.40625 27.007812 4.851562 26.984375 5.449219 C 27.296875 5.265625 27.53125 5 27.773438 4.742188 C 27.949219 4.851562 27.332031 5.246094 27.449219 5.605469 C 27.6875 5.613281 28.082031 4.453125 28.621094 4.148438 C 28.609375 4.292969 27.964844 5.074219 28.421875 4.832031 C 29.882812 4.070312 29.390625 4.730469 29.777344 4.476562 C 30.710938 3.859375 31.5625 3.363281 30.621094 4.0625 C 29.804688 4.671875 30.90625 4.191406 31.929688 3.78125 C 32.53125 3.539062 31.335938 4.246094 31.261719 4.257812 C 31.171875 4.269531 31.167969 4.433594 31.300781 4.398438 C 31.953125 4.21875 30.839844 4.570312 30.894531 4.6875 " fill-opacity="1" fill-rule="nonzero"/></g></g></g></g><g clip-path="url(#318183f3a3)"><g clip-path="url(#9a45d01dcf)"><g clip-path="url(#8f5d368798)"><g clip-path="url(#3d21da9c5f)"><path fill="#000000" d="M 31.027344 3.710938 C 31.773438 3.257812 31.132812 3.699219 31.023438 3.710938 L 31.027344 3.710938 " fill-opacity="1" fill-rule="nonzero"/></g></g></g></g><g clip-path="url(#d451c80f97)"><g clip-path="url(#5ba6a610f0)"><g clip-path="url(#b4dede0dc7)"><g clip-path="url(#c605674ac8)"><path fill="#000000" d="M 23.203125 2.613281 C 23.199219 2.65625 23.195312 2.703125 23.191406 2.757812 C 23.125 2.703125 23.125 2.703125 23.203125 2.613281 " fill-opacity="1" fill-rule="nonzero"/></g></g></g></g><g clip-path="url(#71316c8d4c)"><g clip-path="url(#60591a23aa)"><g clip-path="url(#dcb5ff4c2c)"><g clip-path="url(#132dff5109)"><path fill="#000000" d="M 31.511719 4.324219 C 31.601562 4.257812 31.582031 4.257812 31.601562 4.304688 C 31.570312 4.308594 31.539062 4.316406 31.507812 4.320312 L 31.511719 4.324219 " fill-opacity="1" fill-rule="nonzero"/></g></g></g></g><g clip-path="url(#8223a9babd)"><g clip-path="url(#4acae60c1f)"><g clip-path="url(#285b75ba94)"><g clip-path="url(#f7d860f4c1)"><path fill="#000000" d="M 24.101562 8.304688 C 24.058594 8.414062 23.886719 8.289062 24.09375 8.242188 C 24.097656 8.261719 24.097656 8.285156 24.101562 8.304688 " fill-opacity="1" fill-rule="nonzero"/></g></g></g></g><g clip-path="url(#c76ca8a61b)"><g transform="matrix(1, 0, 0, 1, 0.000000000000003553, 21)"><g clip-path="url(#b635159ebe)"><g fill="#000000" fill-opacity="1"><g transform="translate(0.256325, 47.004338)"><g/></g></g><g fill="#000000" fill-opacity="1"><g transform="translate(20.008209, 47.004338)"><g><path d="M 13.53125 -2.078125 C 13.363281 -1.804688 13.144531 -1.625 12.875 -1.53125 C 12.550781 -1.425781 12.273438 -1.441406 12.046875 -1.578125 C 11.742188 -1.742188 11.546875 -1.957031 11.453125 -2.21875 C 11.347656 -2.550781 11.363281 -2.847656 11.5 -3.109375 C 12.289062 -4.648438 13.019531 -6.347656 13.6875 -8.203125 C 14.363281 -10.066406 14.984375 -12.054688 15.546875 -14.171875 C 16.109375 -16.273438 16.566406 -18.394531 16.921875 -20.53125 C 17.285156 -22.664062 17.582031 -24.804688 17.8125 -26.953125 C 17.78125 -26.921875 17.753906 -26.894531 17.734375 -26.875 C 17.722656 -26.851562 17.703125 -26.828125 17.671875 -26.796875 C 16.023438 -24.628906 14.019531 -23.019531 11.65625 -21.96875 C 9.082031 -20.8125 6.941406 -20.675781 5.234375 -21.5625 C 3.191406 -22.625 2.285156 -24.78125 2.515625 -28.03125 C 2.710938 -30.664062 3.632812 -33.101562 5.28125 -35.34375 C 6.863281 -37.414062 8.640625 -38.910156 10.609375 -39.828125 C 12.847656 -40.816406 14.789062 -40.914062 16.4375 -40.125 C 18.019531 -39.300781 18.957031 -37.769531 19.25 -35.53125 L 19.296875 -35.53125 C 19.597656 -35.53125 19.863281 -35.4375 20.09375 -35.25 C 20.289062 -35.007812 20.390625 -34.742188 20.390625 -34.453125 C 20.453125 -29.085938 19.859375 -23.410156 18.609375 -17.421875 C 17.984375 -14.429688 17.242188 -11.660156 16.390625 -9.109375 C 15.535156 -6.554688 14.582031 -4.210938 13.53125 -2.078125 Z M 6.265625 -23.59375 C 7.347656 -23.0625 8.832031 -23.207031 10.71875 -24.03125 C 12.6875 -24.894531 14.394531 -26.28125 15.84375 -28.1875 C 17.125 -29.863281 17.863281 -31.585938 18.0625 -33.359375 C 17.769531 -33.429688 17.539062 -33.566406 17.375 -33.765625 C 17.175781 -33.960938 17.078125 -34.191406 17.078125 -34.453125 C 17.046875 -36.359375 16.488281 -37.5625 15.40625 -38.0625 C 14.414062 -38.550781 13.128906 -38.453125 11.546875 -37.765625 C 9.804688 -36.972656 8.328125 -35.722656 7.109375 -34.015625 C 5.691406 -32.097656 4.914062 -30.039062 4.78125 -27.84375 C 4.625 -25.601562 5.117188 -24.1875 6.265625 -23.59375 Z M 6.265625 -23.59375 "/></g></g></g></g></g></g></g></g></svg>