<svg xmlns="http://www.w3.org/2000/svg" xmlns:xlink="http://www.w3.org/1999/xlink" width="112" zoomAndPan="magnify" viewBox="0 0 84 83.999999" height="112" preserveAspectRatio="xMidYMid meet" version="1.0"><defs><g/><clipPath id="7efd11886b"><rect x="0" width="74" y="0" height="34"/></clipPath><clipPath id="3154b661bc"><path d="M 56 12 L 76 12 L 76 57 L 56 57 Z M 56 12 " clip-rule="nonzero"/></clipPath><clipPath id="8991069686"><path d="M 55.625 13.734375 L 75.0625 12.160156 L 78.574219 55.515625 L 59.136719 57.089844 Z M 55.625 13.734375 " clip-rule="nonzero"/></clipPath><clipPath id="d241137004"><path d="M 55.625 13.734375 L 75.0625 12.160156 L 78.574219 55.515625 L 59.136719 57.089844 Z M 55.625 13.734375 " clip-rule="nonzero"/></clipPath><clipPath id="ccb55c7769"><path d="M 55.625 13.734375 L 75.0625 12.160156 L 78.574219 55.515625 L 59.136719 57.089844 Z M 55.625 13.734375 " clip-rule="nonzero"/></clipPath><clipPath id="1b61b618ff"><path d="M 72 14 L 73 14 L 73 15 L 72 15 Z M 72 14 " clip-rule="nonzero"/></clipPath><clipPath id="ad553d69f4"><path d="M 55.625 13.734375 L 75.0625 12.160156 L 78.574219 55.515625 L 59.136719 57.089844 Z M 55.625 13.734375 " clip-rule="nonzero"/></clipPath><clipPath id="d6b19cfff4"><path d="M 55.625 13.734375 L 75.0625 12.160156 L 78.574219 55.515625 L 59.136719 57.089844 Z M 55.625 13.734375 " clip-rule="nonzero"/></clipPath><clipPath id="d377992006"><path d="M 55.625 13.734375 L 75.0625 12.160156 L 78.574219 55.515625 L 59.136719 57.089844 Z M 55.625 13.734375 " clip-rule="nonzero"/></clipPath><clipPath id="6f2b109407"><path d="M 66 13 L 67 13 L 67 14 L 66 14 Z M 66 13 " clip-rule="nonzero"/></clipPath><clipPath id="9b32bffd62"><path d="M 55.625 13.734375 L 75.0625 12.160156 L 78.574219 55.515625 L 59.136719 57.089844 Z M 55.625 13.734375 " clip-rule="nonzero"/></clipPath><clipPath id="c70a2c349d"><path d="M 55.625 13.734375 L 75.0625 12.160156 L 78.574219 55.515625 L 59.136719 57.089844 Z M 55.625 13.734375 " clip-rule="nonzero"/></clipPath><clipPath id="c9103f3764"><path d="M 55.625 13.734375 L 75.0625 12.160156 L 78.574219 55.515625 L 59.136719 57.089844 Z M 55.625 13.734375 " clip-rule="nonzero"/></clipPath><clipPath id="98a5b88aa3"><path d="M 72 14 L 73 14 L 73 15 L 72 15 Z M 72 14 " clip-rule="nonzero"/></clipPath><clipPath id="c884cd455e"><path d="M 55.625 13.734375 L 75.0625 12.160156 L 78.574219 55.515625 L 59.136719 57.089844 Z M 55.625 13.734375 " clip-rule="nonzero"/></clipPath><clipPath id="3d9b1c9a37"><path d="M 55.625 13.734375 L 75.0625 12.160156 L 78.574219 55.515625 L 59.136719 57.089844 Z M 55.625 13.734375 " clip-rule="nonzero"/></clipPath><clipPath id="65c0393026"><path d="M 55.625 13.734375 L 75.0625 12.160156 L 78.574219 55.515625 L 59.136719 57.089844 Z M 55.625 13.734375 " clip-rule="nonzero"/></clipPath><clipPath id="786673b062"><path d="M 67 17 L 68 17 L 68 18 L 67 18 Z M 67 17 " clip-rule="nonzero"/></clipPath><clipPath id="54d44d4109"><path d="M 55.625 13.734375 L 75.0625 12.160156 L 78.574219 55.515625 L 59.136719 57.089844 Z M 55.625 13.734375 " clip-rule="nonzero"/></clipPath><clipPath id="dfa36425cd"><path d="M 55.625 13.734375 L 75.0625 12.160156 L 78.574219 55.515625 L 59.136719 57.089844 Z M 55.625 13.734375 " clip-rule="nonzero"/></clipPath><clipPath id="599ae40be8"><path d="M 55.625 13.734375 L 75.0625 12.160156 L 78.574219 55.515625 L 59.136719 57.089844 Z M 55.625 13.734375 " clip-rule="nonzero"/></clipPath><clipPath id="c312cb4fdc"><path d="M 0.28125 1 L 5 1 L 5 7 L 0.28125 7 Z M 0.28125 1 " clip-rule="nonzero"/></clipPath><clipPath id="d62f2641e1"><rect x="0" width="40" y="0" height="9"/></clipPath></defs><rect x="-8.4" width="100.8" fill="#ffffff" y="-8.4" height="100.799999" fill-opacity="1"/><rect x="-8.4" width="100.8" fill="#ffffff" y="-8.4" height="100.799999" fill-opacity="1"/><g transform="matrix(1, 0, 0, 1, 5, 30)"><g clip-path="url(#7efd11886b)"><g fill="#000000" fill-opacity="1"><g transform="translate(0.755672, 26.44047)"><g><path d="M 2.1875 -0.046875 C 2.007812 -0.117188 1.867188 -0.253906 1.765625 -0.453125 C 1.691406 -0.597656 1.644531 -0.734375 1.625 -0.859375 C 1.5 -1.296875 1.425781 -1.957031 1.40625 -2.84375 C 1.382812 -3.15625 1.367188 -3.488281 1.359375 -3.84375 C 1.359375 -4.207031 1.359375 -4.585938 1.359375 -4.984375 L 1.359375 -5.09375 C 1.359375 -8.269531 1.414062 -11.191406 1.53125 -13.859375 C 1.644531 -16.535156 1.820312 -18.960938 2.0625 -21.140625 C 2.09375 -21.296875 2.171875 -21.429688 2.296875 -21.546875 C 2.441406 -21.648438 2.597656 -21.691406 2.765625 -21.671875 C 2.941406 -21.640625 3.078125 -21.566406 3.171875 -21.453125 C 3.273438 -21.304688 3.320312 -21.15625 3.3125 -21 C 2.96875 -17.894531 2.75 -14.164062 2.65625 -9.8125 L 2.6875 -9.8125 C 3.382812 -9.519531 4.503906 -9.382812 6.046875 -9.40625 C 6.734375 -9.414062 7.367188 -9.457031 7.953125 -9.53125 C 8.535156 -9.601562 9.054688 -9.703125 9.515625 -9.828125 C 9.523438 -10.679688 9.523438 -11.5625 9.515625 -12.46875 C 9.515625 -13.382812 9.492188 -14.320312 9.453125 -15.28125 C 9.429688 -15.476562 9.40625 -15.75 9.375 -16.09375 C 9.351562 -16.4375 9.304688 -16.851562 9.234375 -17.34375 C 9.222656 -17.5 9.207031 -17.644531 9.1875 -17.78125 C 9.164062 -17.914062 9.144531 -18.03125 9.125 -18.125 C 9.039062 -18.863281 9.003906 -19.519531 9.015625 -20.09375 C 9.035156 -20.675781 9.109375 -21.175781 9.234375 -21.59375 C 9.273438 -21.757812 9.375 -21.882812 9.53125 -21.96875 C 9.675781 -22.0625 9.832031 -22.082031 10 -22.03125 C 10.15625 -21.976562 10.28125 -21.878906 10.375 -21.734375 C 10.445312 -21.617188 10.46875 -21.460938 10.4375 -21.265625 C 10.238281 -20.578125 10.21875 -19.582031 10.375 -18.28125 C 10.394531 -18.195312 10.410156 -18.085938 10.421875 -17.953125 C 10.441406 -17.816406 10.460938 -17.664062 10.484375 -17.5 C 10.554688 -17 10.601562 -16.566406 10.625 -16.203125 C 10.65625 -15.835938 10.679688 -15.546875 10.703125 -15.328125 C 10.773438 -12.929688 10.785156 -10.671875 10.734375 -8.546875 C 10.691406 -6.421875 10.59375 -4.421875 10.4375 -2.546875 C 10.414062 -2.492188 10.40625 -2.445312 10.40625 -2.40625 C 10.40625 -2.375 10.40625 -2.335938 10.40625 -2.296875 C 10.40625 -2.265625 10.40625 -2.226562 10.40625 -2.1875 C 10.382812 -2.101562 10.375 -2.015625 10.375 -1.921875 C 10.375 -1.828125 10.375 -1.738281 10.375 -1.65625 C 10.351562 -1.414062 10.351562 -1.234375 10.375 -1.109375 L 10.375 -1.078125 C 10.519531 -0.878906 10.554688 -0.691406 10.484375 -0.515625 C 10.429688 -0.367188 10.332031 -0.25 10.1875 -0.15625 C 10.007812 -0.0703125 9.847656 -0.0546875 9.703125 -0.109375 C 9.535156 -0.179688 9.414062 -0.265625 9.34375 -0.359375 C 9.3125 -0.410156 9.273438 -0.488281 9.234375 -0.59375 C 9.222656 -0.632812 9.207031 -0.6875 9.1875 -0.75 C 9.164062 -0.8125 9.144531 -0.878906 9.125 -0.953125 C 9.113281 -1.148438 9.113281 -1.394531 9.125 -1.6875 C 9.125 -1.769531 9.125 -1.859375 9.125 -1.953125 C 9.125 -2.054688 9.132812 -2.164062 9.15625 -2.28125 C 9.15625 -2.3125 9.15625 -2.347656 9.15625 -2.390625 C 9.15625 -2.441406 9.15625 -2.484375 9.15625 -2.515625 L 9.1875 -2.65625 C 9.269531 -3.570312 9.332031 -4.519531 9.375 -5.5 C 9.425781 -6.476562 9.460938 -7.488281 9.484375 -8.53125 C 8.972656 -8.40625 8.429688 -8.316406 7.859375 -8.265625 C 7.296875 -8.210938 6.695312 -8.175781 6.0625 -8.15625 C 4.632812 -8.132812 3.488281 -8.242188 2.625 -8.484375 C 2.601562 -7.921875 2.59375 -7.359375 2.59375 -6.796875 C 2.59375 -6.234375 2.59375 -5.664062 2.59375 -5.09375 L 2.59375 -4.984375 C 2.59375 -4.585938 2.597656 -4.21875 2.609375 -3.875 C 2.617188 -3.53125 2.632812 -3.207031 2.65625 -2.90625 C 2.675781 -2.613281 2.691406 -2.351562 2.703125 -2.125 C 2.722656 -1.894531 2.742188 -1.691406 2.765625 -1.515625 C 2.796875 -1.515625 2.828125 -1.507812 2.859375 -1.5 C 2.898438 -1.488281 2.941406 -1.476562 2.984375 -1.46875 C 3.140625 -1.375 3.25 -1.253906 3.3125 -1.109375 C 3.363281 -0.929688 3.351562 -0.769531 3.28125 -0.625 C 3.207031 -0.445312 3.109375 -0.3125 2.984375 -0.21875 C 2.742188 0 2.476562 0.0546875 2.1875 -0.046875 Z M 2.1875 -0.046875 "/></g></g></g><g fill="#000000" fill-opacity="1"><g transform="translate(12.863517, 26.44047)"><g><path d="M 4.765625 -0.109375 C 3.585938 -0.546875 2.695312 -1.9375 2.09375 -4.28125 C 1.539062 -6.34375 1.296875 -8.664062 1.359375 -11.25 C 1.410156 -13.9375 1.804688 -16.179688 2.546875 -17.984375 C 2.742188 -18.492188 2.972656 -18.9375 3.234375 -19.3125 C 3.492188 -19.695312 3.769531 -20.03125 4.0625 -20.3125 C 4.65625 -20.863281 5.296875 -21.171875 5.984375 -21.234375 C 6.078125 -21.378906 6.203125 -21.484375 6.359375 -21.546875 C 6.523438 -21.578125 6.679688 -21.546875 6.828125 -21.453125 C 8.210938 -20.679688 9.1875 -19.003906 9.75 -16.421875 C 10.238281 -14.179688 10.367188 -11.707031 10.140625 -9 C 9.878906 -6.25 9.351562 -4.0625 8.5625 -2.4375 C 8.09375 -1.5 7.578125 -0.832031 7.015625 -0.4375 C 6.304688 0.09375 5.554688 0.203125 4.765625 -0.109375 Z M 5.203125 -1.265625 C 5.566406 -1.140625 5.9375 -1.207031 6.3125 -1.46875 C 6.707031 -1.738281 7.085938 -2.242188 7.453125 -2.984375 C 8.191406 -4.515625 8.671875 -6.554688 8.890625 -9.109375 C 9.109375 -11.742188 8.988281 -14.085938 8.53125 -16.140625 C 8.113281 -18.046875 7.492188 -19.359375 6.671875 -20.078125 C 6.628906 -20.054688 6.585938 -20.039062 6.546875 -20.03125 C 6.515625 -20.019531 6.484375 -20.015625 6.453125 -20.015625 C 5.304688 -20.015625 4.382812 -19.175781 3.6875 -17.5 C 3.019531 -15.894531 2.65625 -13.800781 2.59375 -11.21875 C 2.582031 -9.988281 2.632812 -8.820312 2.75 -7.71875 C 2.863281 -6.613281 3.050781 -5.566406 3.3125 -4.578125 C 3.8125 -2.660156 4.441406 -1.554688 5.203125 -1.265625 Z M 5.203125 -1.265625 "/></g></g></g><g fill="#000000" fill-opacity="1"><g transform="translate(24.456714, 26.44047)"><g><path d="M 6.765625 -0.515625 C 6.410156 -0.984375 6.1875 -1.671875 6.09375 -2.578125 C 6.070312 -2.859375 6.0625 -3.1875 6.0625 -3.5625 C 6.0625 -3.945312 6.082031 -4.394531 6.125 -4.90625 C 6.144531 -4.976562 6.15625 -5.050781 6.15625 -5.125 C 6.15625 -5.207031 6.15625 -5.296875 6.15625 -5.390625 C 6.1875 -5.753906 6.210938 -6.070312 6.234375 -6.34375 C 6.253906 -6.613281 6.265625 -6.820312 6.265625 -6.96875 C 6.273438 -7.21875 6.273438 -7.445312 6.265625 -7.65625 C 6.265625 -7.863281 6.242188 -8.039062 6.203125 -8.1875 C 6.179688 -8.289062 6.15625 -8.394531 6.125 -8.5 C 6.101562 -8.613281 6.082031 -8.722656 6.0625 -8.828125 C 6.007812 -8.941406 5.984375 -9.050781 5.984375 -9.15625 L 5.984375 -9.1875 C 5.222656 -12.507812 3.707031 -16.226562 1.4375 -20.34375 C 1.34375 -20.488281 1.320312 -20.644531 1.375 -20.8125 C 1.4375 -20.96875 1.539062 -21.09375 1.6875 -21.1875 C 1.789062 -21.257812 1.953125 -21.273438 2.171875 -21.234375 C 2.316406 -21.179688 2.429688 -21.082031 2.515625 -20.9375 C 4.378906 -17.5625 5.742188 -14.457031 6.609375 -11.625 C 6.785156 -12.09375 7.003906 -12.613281 7.265625 -13.1875 C 7.535156 -13.769531 7.84375 -14.394531 8.1875 -15.0625 C 8.65625 -15.988281 9.144531 -16.925781 9.65625 -17.875 C 10.175781 -18.820312 10.722656 -19.78125 11.296875 -20.75 C 11.390625 -20.894531 11.523438 -20.992188 11.703125 -21.046875 C 11.867188 -21.085938 12.023438 -21.0625 12.171875 -20.96875 C 12.304688 -20.875 12.40625 -20.75 12.46875 -20.59375 C 12.5 -20.425781 12.46875 -20.265625 12.375 -20.109375 C 11.800781 -19.148438 11.253906 -18.203125 10.734375 -17.265625 C 10.222656 -16.335938 9.742188 -15.421875 9.296875 -14.515625 C 8.023438 -12.003906 7.335938 -10.253906 7.234375 -9.265625 C 7.265625 -9.117188 7.296875 -8.972656 7.328125 -8.828125 C 7.367188 -8.679688 7.398438 -8.539062 7.421875 -8.40625 C 7.515625 -8.019531 7.539062 -7.53125 7.5 -6.9375 C 7.5 -6.757812 7.488281 -6.535156 7.46875 -6.265625 C 7.457031 -5.992188 7.429688 -5.675781 7.390625 -5.3125 C 7.378906 -5.195312 7.375 -5.097656 7.375 -5.015625 C 7.375 -4.941406 7.375 -4.878906 7.375 -4.828125 C 7.332031 -4.359375 7.304688 -3.945312 7.296875 -3.59375 C 7.285156 -3.238281 7.289062 -2.9375 7.3125 -2.6875 C 7.363281 -2.019531 7.507812 -1.554688 7.75 -1.296875 C 7.851562 -1.148438 7.898438 -1 7.890625 -0.84375 C 7.847656 -0.644531 7.773438 -0.5 7.671875 -0.40625 C 7.546875 -0.300781 7.390625 -0.265625 7.203125 -0.296875 C 7.003906 -0.335938 6.859375 -0.410156 6.765625 -0.515625 Z M 6.765625 -0.515625 "/></g></g></g><g fill="#000000" fill-opacity="1"><g transform="translate(38.271032, 26.44047)"><g><path d="M 4.765625 -0.109375 C 3.585938 -0.546875 2.695312 -1.9375 2.09375 -4.28125 C 1.539062 -6.34375 1.296875 -8.664062 1.359375 -11.25 C 1.410156 -13.9375 1.804688 -16.179688 2.546875 -17.984375 C 2.742188 -18.492188 2.972656 -18.9375 3.234375 -19.3125 C 3.492188 -19.695312 3.769531 -20.03125 4.0625 -20.3125 C 4.65625 -20.863281 5.296875 -21.171875 5.984375 -21.234375 C 6.078125 -21.378906 6.203125 -21.484375 6.359375 -21.546875 C 6.523438 -21.578125 6.679688 -21.546875 6.828125 -21.453125 C 8.210938 -20.679688 9.1875 -19.003906 9.75 -16.421875 C 10.238281 -14.179688 10.367188 -11.707031 10.140625 -9 C 9.878906 -6.25 9.351562 -4.0625 8.5625 -2.4375 C 8.09375 -1.5 7.578125 -0.832031 7.015625 -0.4375 C 6.304688 0.09375 5.554688 0.203125 4.765625 -0.109375 Z M 5.203125 -1.265625 C 5.566406 -1.140625 5.9375 -1.207031 6.3125 -1.46875 C 6.707031 -1.738281 7.085938 -2.242188 7.453125 -2.984375 C 8.191406 -4.515625 8.671875 -6.554688 8.890625 -9.109375 C 9.109375 -11.742188 8.988281 -14.085938 8.53125 -16.140625 C 8.113281 -18.046875 7.492188 -19.359375 6.671875 -20.078125 C 6.628906 -20.054688 6.585938 -20.039062 6.546875 -20.03125 C 6.515625 -20.019531 6.484375 -20.015625 6.453125 -20.015625 C 5.304688 -20.015625 4.382812 -19.175781 3.6875 -17.5 C 3.019531 -15.894531 2.65625 -13.800781 2.59375 -11.21875 C 2.582031 -9.988281 2.632812 -8.820312 2.75 -7.71875 C 2.863281 -6.613281 3.050781 -5.566406 3.3125 -4.578125 C 3.8125 -2.660156 4.441406 -1.554688 5.203125 -1.265625 Z M 5.203125 -1.265625 "/></g></g></g><g fill="#000000" fill-opacity="1"><g transform="translate(49.864229, 26.44047)"><g/></g></g><g fill="#000000" fill-opacity="1"><g transform="translate(60.69899, 26.44047)"><g><path d="M 7.421875 -1.140625 C 7.328125 -0.992188 7.210938 -0.894531 7.078125 -0.84375 C 6.890625 -0.789062 6.734375 -0.796875 6.609375 -0.859375 C 6.441406 -0.953125 6.332031 -1.070312 6.28125 -1.21875 C 6.226562 -1.394531 6.238281 -1.554688 6.3125 -1.703125 C 6.75 -2.554688 7.148438 -3.492188 7.515625 -4.515625 C 7.890625 -5.535156 8.226562 -6.625 8.53125 -7.78125 C 8.84375 -8.9375 9.097656 -10.097656 9.296875 -11.265625 C 9.492188 -12.441406 9.65625 -13.617188 9.78125 -14.796875 C 9.757812 -14.773438 9.742188 -14.757812 9.734375 -14.75 C 9.734375 -14.738281 9.722656 -14.726562 9.703125 -14.71875 C 8.796875 -13.519531 7.691406 -12.632812 6.390625 -12.0625 C 4.984375 -11.425781 3.8125 -11.351562 2.875 -11.84375 C 1.75 -12.414062 1.25 -13.597656 1.375 -15.390625 C 1.488281 -16.835938 2 -18.175781 2.90625 -19.40625 C 3.769531 -20.539062 4.742188 -21.359375 5.828125 -21.859375 C 7.054688 -22.398438 8.117188 -22.457031 9.015625 -22.03125 C 9.890625 -21.570312 10.40625 -20.726562 10.5625 -19.5 L 10.59375 -19.5 C 10.757812 -19.5 10.90625 -19.445312 11.03125 -19.34375 C 11.132812 -19.21875 11.1875 -19.070312 11.1875 -18.90625 C 11.226562 -15.96875 10.90625 -12.851562 10.21875 -9.5625 C 9.875 -7.914062 9.46875 -6.394531 9 -5 C 8.53125 -3.601562 8.003906 -2.316406 7.421875 -1.140625 Z M 3.4375 -12.953125 C 4.03125 -12.660156 4.84375 -12.738281 5.875 -13.1875 C 6.957031 -13.664062 7.898438 -14.425781 8.703125 -15.46875 C 9.398438 -16.394531 9.804688 -17.34375 9.921875 -18.3125 C 9.753906 -18.351562 9.625 -18.425781 9.53125 -18.53125 C 9.425781 -18.632812 9.375 -18.757812 9.375 -18.90625 C 9.351562 -19.957031 9.046875 -20.617188 8.453125 -20.890625 C 7.910156 -21.160156 7.207031 -21.109375 6.34375 -20.734375 C 5.382812 -20.296875 4.570312 -19.609375 3.90625 -18.671875 C 3.125 -17.617188 2.695312 -16.488281 2.625 -15.28125 C 2.539062 -14.050781 2.8125 -13.273438 3.4375 -12.953125 Z M 3.4375 -12.953125 "/></g></g></g></g></g><g clip-path="url(#3154b661bc)"><g clip-path="url(#8991069686)"><g clip-path="url(#d241137004)"><g clip-path="url(#ccb55c7769)"><path fill="#000000" d="M 69.941406 26.777344 C 69.984375 26.820312 69.996094 26.785156 70.011719 26.769531 C 69.992188 26.773438 69.976562 26.773438 69.941406 26.777344 Z M 69.449219 20.171875 C 69.417969 20.15625 69.425781 20.15625 69.410156 20.179688 C 69.441406 20.199219 69.429688 20.199219 69.449219 20.171875 Z M 66.339844 21.65625 C 66.3125 21.65625 66.316406 21.644531 66.328125 21.707031 C 66.34375 21.707031 66.339844 21.714844 66.339844 21.65625 Z M 66.664062 14.140625 C 66.636719 14.136719 66.640625 14.125 66.644531 14.195312 C 66.667969 14.195312 66.664062 14.203125 66.664062 14.140625 Z M 70.761719 17.972656 C 70.78125 17.980469 70.773438 17.988281 70.800781 17.9375 C 70.769531 17.929688 70.777344 17.921875 70.761719 17.972656 Z M 73.101562 26.847656 C 73.101562 26.847656 73.097656 26.832031 73.097656 26.820312 C 73.027344 26.84375 73.039062 26.871094 73.101562 26.847656 Z M 71.480469 15.453125 C 71.496094 15.40625 71.5 15.417969 71.476562 15.40625 C 71.460938 15.4375 71.460938 15.425781 71.480469 15.453125 Z M 71.253906 15.507812 C 71.226562 15.492188 71.238281 15.484375 71.203125 15.539062 C 71.21875 15.550781 71.207031 15.554688 71.253906 15.507812 Z M 68.949219 16.203125 C 68.886719 16.179688 68.910156 16.246094 68.925781 16.230469 C 68.933594 16.226562 68.9375 16.214844 68.949219 16.203125 Z M 70.621094 16.648438 C 70.609375 16.699219 70.640625 16.6875 70.671875 16.683594 C 70.652344 16.671875 70.636719 16.660156 70.621094 16.648438 Z M 71.625 17.515625 C 71.601562 17.527344 71.601562 17.511719 71.636719 17.578125 C 71.660156 17.566406 71.660156 17.578125 71.625 17.515625 Z M 71.878906 22.195312 C 71.894531 22.1875 71.894531 22.199219 71.871094 22.152344 C 71.855469 22.164062 71.855469 22.152344 71.878906 22.195312 Z M 67.117188 23.203125 C 67.144531 23.199219 67.160156 23.199219 67.175781 23.195312 C 67.164062 23.148438 67.144531 23.152344 67.117188 23.203125 Z M 72.535156 26.257812 C 72.53125 26.242188 72.539062 26.242188 72.488281 26.257812 C 72.5 26.273438 72.488281 26.273438 72.535156 26.257812 Z M 67.304688 23.222656 C 67.339844 23.214844 67.3125 23.160156 67.289062 23.175781 C 67.292969 23.191406 67.300781 23.207031 67.304688 23.222656 Z M 64.875 24.675781 C 64.925781 24.625 64.851562 24.574219 64.863281 24.640625 C 64.863281 24.652344 64.871094 24.664062 64.875 24.675781 Z M 59.632812 24.070312 C 59.652344 24.082031 59.644531 24.089844 59.667969 24.039062 C 59.652344 24.03125 59.660156 24.023438 59.632812 24.070312 Z M 66.542969 20.203125 C 66.582031 20.167969 66.582031 20.167969 66.542969 20.140625 C 66.542969 20.160156 66.542969 20.171875 66.542969 20.203125 Z M 59.238281 25.066406 C 59.21875 25.078125 59.21875 25.066406 59.246094 25.113281 C 59.261719 25.105469 59.261719 25.117188 59.238281 25.066406 Z M 59.527344 21.089844 C 59.554688 21.078125 59.554688 21.089844 59.519531 21.039062 C 59.503906 21.046875 59.503906 21.035156 59.527344 21.089844 Z M 68.78125 24.566406 C 68.773438 24.609375 68.785156 24.628906 68.832031 24.617188 C 68.8125 24.597656 68.796875 24.582031 68.78125 24.566406 Z M 70.472656 26.699219 C 70.496094 26.710938 70.484375 26.71875 70.523438 26.65625 C 70.507812 26.644531 70.519531 26.636719 70.472656 26.699219 Z M 61.246094 24.070312 C 61.238281 24.050781 61.230469 24.035156 61.21875 24.007812 C 61.1875 24.054688 61.222656 24.058594 61.246094 24.070312 Z M 69.34375 15.484375 C 69.292969 15.515625 69.296875 15.542969 69.3125 15.582031 C 69.324219 15.546875 69.332031 15.523438 69.34375 15.484375 Z M 71.914062 27.867188 C 71.90625 27.878906 71.898438 27.886719 71.890625 27.894531 C 71.898438 27.898438 71.90625 27.910156 71.910156 27.910156 C 71.953125 27.894531 71.921875 27.875 71.914062 27.867188 Z M 61.496094 28.492188 C 61.523438 28.453125 61.539062 28.433594 61.5 28.402344 C 61.5 28.433594 61.496094 28.457031 61.496094 28.492188 Z M 73.613281 27.328125 C 73.613281 27.265625 73.613281 27.265625 73.566406 27.265625 C 73.582031 27.28125 73.589844 27.296875 73.613281 27.328125 Z M 73.699219 25.753906 C 73.683594 25.765625 73.683594 25.753906 73.714844 25.8125 C 73.738281 25.789062 73.742188 25.804688 73.699219 25.753906 Z M 65.925781 20.375 C 65.957031 20.382812 65.945312 20.390625 65.964844 20.320312 C 65.929688 20.3125 65.941406 20.304688 65.925781 20.375 Z M 60.8125 21.222656 C 60.792969 21.238281 60.789062 21.222656 60.828125 21.308594 C 60.847656 21.300781 60.847656 21.316406 60.8125 21.222656 Z M 60.710938 21.414062 C 60.707031 21.371094 60.703125 21.347656 60.703125 21.328125 C 60.65625 21.375 60.691406 21.390625 60.710938 21.414062 Z M 61.046875 24.558594 C 61.03125 24.582031 60.988281 24.628906 61.027344 24.628906 C 61.0625 24.625 61.066406 24.601562 61.046875 24.558594 Z M 62.269531 27.148438 C 62.230469 27.21875 62.230469 27.195312 62.292969 27.234375 C 62.285156 27.148438 62.292969 27.160156 62.269531 27.148438 Z M 70.375 18.144531 C 70.390625 18.199219 70.414062 18.195312 70.449219 18.171875 C 70.429688 18.164062 70.40625 18.15625 70.375 18.144531 Z M 73.136719 25.015625 C 73.144531 24.992188 73.167969 24.941406 73.121094 24.953125 C 73.074219 24.960938 73.128906 25.003906 73.136719 25.015625 Z M 69.246094 15.066406 C 69.226562 14.96875 69.246094 14.972656 69.164062 15.03125 C 69.199219 15.046875 69.214844 15.050781 69.246094 15.066406 Z M 66.609375 14.585938 C 66.636719 14.5625 66.640625 14.539062 66.628906 14.511719 C 66.617188 14.535156 66.578125 14.546875 66.609375 14.585938 Z M 73.546875 23.21875 C 73.609375 23.207031 73.589844 23.164062 73.53125 23.136719 C 73.539062 23.171875 73.542969 23.195312 73.546875 23.21875 Z M 64.542969 19.160156 C 64.511719 19.246094 64.511719 19.246094 64.570312 19.246094 C 64.5625 19.21875 64.554688 19.195312 64.542969 19.160156 Z M 70.71875 16.992188 C 70.746094 16.9375 70.695312 16.921875 70.640625 16.953125 C 70.664062 16.964844 70.691406 16.980469 70.71875 16.992188 Z M 67.203125 23.222656 C 67.210938 23.273438 67.167969 23.320312 67.230469 23.351562 C 67.269531 23.304688 67.253906 23.269531 67.203125 23.222656 Z M 69.9375 20.90625 C 70.078125 20.867188 70.0625 20.878906 70.054688 20.851562 C 70.007812 20.839844 69.96875 20.851562 69.9375 20.90625 Z M 63.441406 23.71875 C 63.527344 23.796875 63.511719 23.792969 63.535156 23.773438 C 63.484375 23.667969 63.507812 23.679688 63.441406 23.71875 Z M 71.632812 23.542969 C 71.660156 23.554688 71.675781 23.566406 71.695312 23.574219 C 71.683594 23.554688 71.75 23.363281 71.632812 23.542969 Z M 68.617188 24.589844 C 68.632812 24.605469 68.613281 24.613281 68.738281 24.515625 C 68.679688 24.472656 68.679688 24.46875 68.617188 24.589844 Z M 70.132812 18.394531 C 70.238281 18.46875 70.214844 18.480469 70.242188 18.371094 C 70.238281 18.359375 70.234375 18.347656 70.230469 18.335938 C 70.210938 18.441406 70.171875 18.339844 70.132812 18.394531 Z M 60.746094 21.289062 C 60.75 21.347656 60.753906 21.398438 60.757812 21.445312 C 60.824219 21.417969 60.820312 21.359375 60.746094 21.289062 Z M 67.714844 21.125 C 67.75 21.082031 67.75 21.082031 67.726562 20.988281 C 67.648438 21.070312 67.648438 21.039062 67.714844 21.125 Z M 63.636719 23.898438 C 63.59375 23.9375 63.527344 23.929688 63.519531 24 C 63.667969 23.976562 63.644531 24.003906 63.636719 23.898438 Z M 71.3125 26.328125 C 71.324219 26.378906 71.324219 26.378906 71.402344 26.363281 C 71.308594 26.226562 71.273438 26.167969 71.3125 26.328125 Z M 71.40625 15.394531 C 71.214844 15.445312 71.335938 15.5 71.382812 15.527344 C 71.390625 15.480469 71.398438 15.449219 71.40625 15.394531 Z M 61.898438 27.84375 C 61.929688 27.765625 61.976562 27.707031 61.945312 27.628906 C 61.964844 27.746094 61.8125 27.671875 61.898438 27.84375 Z M 73.902344 23.421875 C 73.910156 23.417969 73.917969 23.414062 73.925781 23.410156 C 73.890625 23.375 73.941406 23.316406 73.878906 23.285156 C 73.773438 23.402344 73.773438 23.371094 73.902344 23.421875 Z M 71.761719 14.984375 C 71.675781 14.976562 71.574219 15.03125 71.546875 15.097656 C 71.628906 15.082031 71.6875 15.035156 71.761719 14.984375 Z M 69.371094 20.976562 C 69.597656 21.007812 69.707031 20.722656 69.40625 20.910156 C 69.386719 20.921875 69.382812 20.949219 69.371094 20.976562 Z M 61.105469 24.445312 C 61.125 24.316406 61.179688 24.410156 61.148438 24.289062 C 61.136719 24.253906 61.15625 24.222656 61.207031 24.226562 C 61.195312 24.175781 61.183594 24.136719 61.171875 24.09375 C 61.128906 24.097656 61.046875 24.300781 61.105469 24.445312 Z M 69.355469 21.035156 C 69.257812 20.957031 69.292969 20.960938 69.082031 21.03125 C 69.101562 21.179688 69.132812 21.132812 69.355469 21.035156 Z M 69.160156 20.433594 C 69.058594 20.386719 68.808594 20.410156 68.878906 20.5 C 68.929688 20.574219 69.089844 20.59375 69.160156 20.433594 Z M 70.542969 24.972656 C 70.605469 24.972656 70.648438 24.96875 70.695312 24.96875 C 70.707031 24.765625 70.332031 24.4375 70.542969 24.972656 Z M 70.851562 17.421875 C 70.261719 17.128906 69.898438 17.226562 70.792969 17.464844 C 70.824219 17.472656 70.84375 17.46875 70.851562 17.421875 Z M 68.25 24.3125 C 68.363281 24.5 68.644531 24.390625 68.691406 24.351562 C 68.632812 24.265625 68.59375 24.234375 68.542969 24.265625 C 68.472656 24.304688 68.492188 24.261719 68.25 24.3125 Z M 72.84375 27.324219 C 72.933594 27.332031 73.101562 27.367188 73.066406 27.242188 C 73.023438 27.101562 72.894531 27.058594 72.808594 27.117188 C 72.769531 27.144531 72.796875 27.1875 72.84375 27.324219 Z M 67.890625 24.046875 C 67.90625 24.078125 68.351562 24.152344 68.398438 24.066406 C 68.421875 24.023438 68.25 23.742188 67.890625 24.046875 Z M 66.957031 21.539062 C 66.941406 21.449219 66.839844 21.535156 66.675781 21.539062 C 66.492188 21.539062 66.371094 21.804688 66.503906 21.796875 C 66.601562 21.792969 66.921875 21.578125 66.957031 21.539062 Z M 73.289062 27.027344 C 73.191406 27.046875 73.042969 27.0625 73.109375 27.191406 C 73.1875 27.328125 73.230469 27.339844 73.417969 27.347656 C 73.566406 27.351562 73.476562 27.34375 73.433594 27.25 C 73.398438 27.171875 73.363281 27.085938 73.289062 27.027344 Z M 73.5 24.109375 C 73.53125 24.078125 73.570312 24.050781 73.5625 23.996094 C 73.554688 23.964844 73.445312 23.878906 73.40625 23.878906 C 73.390625 23.875 73.367188 23.882812 73.363281 23.875 C 73.320312 23.808594 73.246094 23.828125 73.191406 23.8125 C 73 24 73.058594 23.988281 73.5 24.109375 Z M 67.023438 21.128906 C 66.769531 21.175781 66.714844 21.113281 66.699219 21.261719 C 67.183594 21.273438 68.394531 20.886719 67.023438 21.128906 Z M 72.082031 27.269531 C 72.070312 27.375 72.433594 27.335938 72.773438 27.308594 C 72.605469 27.085938 72.621094 27.09375 72.277344 27.183594 C 72.148438 27.214844 72.257812 27.273438 72.082031 27.269531 Z M 72.609375 26.40625 C 72.4375 26.484375 72.59375 26.53125 72.582031 26.742188 C 72.578125 26.824219 72.65625 26.898438 72.753906 27.015625 C 72.792969 27.007812 72.839844 27.003906 72.890625 26.996094 C 72.863281 26.871094 72.683594 26.527344 72.609375 26.40625 Z M 64.980469 21 C 65.105469 20.949219 65.082031 20.953125 64.871094 20.492188 C 64.710938 20.136719 64.75 20.207031 64.675781 20.109375 C 64.21875 19.535156 64.816406 20.792969 64.980469 21 Z M 64.347656 22.101562 C 64.121094 21.972656 64.09375 21.933594 64.019531 22.011719 C 63.945312 22.089844 63.910156 22.0625 63.808594 22.109375 C 63.730469 22.144531 63.457031 22.339844 63.574219 22.425781 C 63.816406 22.425781 63.859375 22.214844 64.109375 22.230469 C 64.210938 22.238281 64.269531 22.171875 64.347656 22.101562 Z M 63.296875 23.859375 C 63 23.96875 62.941406 24.253906 62.882812 24.609375 C 62.84375 24.84375 63.089844 24.4375 63.210938 24.304688 C 63.445312 24.046875 63.519531 24.109375 63.335938 23.992188 C 63.292969 24.039062 63.328125 24.125 63.234375 24.15625 C 63.253906 24.058594 63.273438 23.96875 63.296875 23.859375 Z M 72.023438 27.300781 C 72.011719 27.210938 71.996094 27.15625 71.828125 27.179688 C 70.820312 27.320312 70.65625 27.355469 70.742188 27.460938 C 70.785156 27.511719 71.972656 27.347656 72.023438 27.300781 Z M 70.238281 26.0625 C 70.5 26.15625 71.300781 26.039062 71.210938 25.882812 C 71.101562 25.695312 71.101562 25.746094 71.070312 25.792969 C 70.9375 25.714844 70.886719 25.839844 70.742188 25.804688 C 70.699219 25.855469 70.632812 25.84375 70.578125 25.859375 C 70.546875 25.871094 70.511719 25.902344 70.488281 25.894531 C 70.402344 25.871094 70.433594 25.890625 70.238281 26.0625 Z M 67.832031 20.03125 C 67.863281 20.089844 67.871094 20.066406 68.351562 20.125 C 68.722656 20.167969 69.042969 20.292969 69.234375 20.027344 C 68.71875 19.941406 68.777344 19.933594 68.828125 20.078125 C 68.769531 20.089844 68.652344 20.023438 68.625 20 C 68.535156 19.921875 68.457031 19.921875 68.03125 19.910156 C 67.945312 19.910156 67.875 19.945312 67.832031 20.03125 Z M 73.90625 27.367188 C 73.976562 27.34375 73.996094 27.445312 73.722656 26.792969 C 73.050781 25.191406 73.507812 27.511719 73.90625 27.367188 Z M 69.277344 18.460938 C 69.34375 18.578125 69.34375 18.519531 69.761719 18.640625 C 70.257812 18.785156 70.511719 19.039062 70.492188 18.847656 C 70.476562 18.679688 70.316406 18.757812 70.3125 18.667969 C 70.304688 18.550781 69.546875 18.363281 69.523438 18.355469 C 69.480469 18.34375 69.5625 18.367188 69.277344 18.460938 Z M 68.980469 19.535156 C 68.613281 19.53125 68.71875 19.3125 68.351562 19.585938 C 68.261719 19.652344 68.75 19.707031 68.757812 19.707031 C 69.359375 19.738281 68.835938 19.679688 69.355469 19.855469 C 69.5625 19.925781 69.609375 19.746094 69.796875 19.742188 C 69.949219 19.738281 69.5625 19.542969 68.980469 19.535156 Z M 64.019531 24.503906 C 64.09375 24.796875 64.242188 24.703125 64.640625 25.238281 C 64.796875 25.445312 64.71875 25.453125 64.8125 25.488281 C 64.886719 25.519531 64.929688 25.417969 64.9375 25.339844 C 65.011719 24.734375 65.0625 25.101562 64.019531 24.503906 Z M 67.097656 20.683594 C 67.257812 20.738281 67.886719 20.527344 68.261719 20.570312 C 68.496094 20.597656 68.507812 20.527344 68.632812 20.425781 C 68.554688 20.390625 68.640625 20.414062 68.4375 20.398438 C 67.566406 20.324219 67.503906 20.207031 67.097656 20.683594 Z M 64.625 25.703125 C 64.546875 25.75 63.9375 24.964844 63.835938 24.992188 C 63.671875 25.035156 64.40625 25.953125 64.636719 26.304688 C 64.769531 26.507812 64.761719 26.136719 64.785156 25.9375 C 64.796875 25.832031 64.824219 25.699219 64.804688 25.660156 C 64.71875 25.503906 64.539062 25.386719 64.625 25.703125 Z M 70.476562 27.085938 C 70.703125 27.179688 70.734375 27.015625 71.640625 27.042969 C 71.648438 27.042969 72.261719 27.027344 72.269531 27.027344 C 72.597656 27.015625 72.546875 27.035156 72.421875 26.777344 C 72.292969 26.503906 70.589844 27 70.476562 27.085938 Z M 68.570312 15.164062 C 68.515625 15.082031 68.3125 15.234375 68.28125 15.285156 C 68.257812 15.332031 68.339844 15.207031 67.992188 15.492188 C 66.894531 16.378906 67.058594 16.570312 67.21875 16.398438 C 67.277344 16.335938 67.511719 16.132812 67.628906 16.105469 C 67.570312 16.296875 67.214844 16.65625 67.25 16.699219 C 67.410156 16.644531 67.453125 16.707031 67.492188 16.574219 C 67.496094 16.5625 67.714844 16.238281 67.796875 15.867188 C 67.8125 15.796875 67.859375 15.753906 67.917969 15.714844 C 67.945312 15.789062 67.945312 15.789062 67.921875 15.839844 C 67.808594 16.089844 67.855469 16.359375 67.789062 16.445312 C 67.738281 16.515625 67.773438 16.582031 67.78125 16.652344 C 67.789062 16.648438 68.46875 15.347656 68.570312 15.164062 Z M 61.277344 22.773438 C 61.207031 22.910156 61.269531 22.992188 61.265625 23.085938 C 61.410156 23.082031 61.382812 23.027344 61.574219 22.941406 C 61.921875 22.78125 63.316406 22.460938 63.339844 22.46875 C 63.402344 22.292969 63.382812 22.273438 63.496094 22.257812 C 63.527344 22.148438 63.550781 22.144531 63.433594 22.175781 C 62.625 22.394531 62.625 22.597656 62.527344 22.566406 C 62.515625 22.402344 62.449219 22.667969 63.394531 21.828125 C 63.3125 21.683594 62.585938 22.316406 62.582031 22.320312 C 62.113281 22.722656 62.644531 22.066406 62.449219 22.070312 C 61.910156 22.074219 62.109375 22.214844 61.851562 22.511719 C 61.84375 22.46875 61.839844 22.4375 61.832031 22.390625 C 61.757812 22.4375 61.746094 22.5 61.746094 22.558594 C 61.746094 22.773438 61.640625 22.710938 61.683594 22.578125 C 61.78125 22.285156 61.777344 22.222656 61.875 22.101562 C 62.535156 21.296875 61.742188 21.882812 61.277344 22.773438 Z M 63.875 27.039062 C 63.851562 27.058594 63.90625 27.105469 63.433594 26.578125 C 63.320312 26.632812 64.039062 27.644531 64.355469 27.910156 C 64.523438 28.054688 64.492188 27.65625 64.496094 27.511719 C 64.5 27.429688 64.640625 26.769531 64.644531 26.757812 C 64.707031 26.625 64.609375 26.621094 64.519531 26.53125 C 64.011719 26.027344 64.089844 25.902344 63.898438 25.796875 C 63.945312 26.066406 64.265625 26.800781 64.074219 26.457031 C 63.789062 25.953125 63.726562 25.976562 63.96875 26.574219 C 64.074219 26.832031 63.777344 26.476562 63.628906 26.195312 C 63.574219 26.097656 63.347656 25.9375 63.875 27.039062 Z M 67.410156 17.175781 C 67.332031 16.941406 67.390625 17.175781 67.289062 17.214844 C 67.277344 17.222656 67.273438 17.257812 67.265625 17.285156 C 67.375 17.285156 67.304688 17.339844 67.359375 17.347656 C 67.425781 17.199219 67.417969 17.230469 67.410156 17.175781 Z M 62.0625 27.433594 C 62.1875 27.464844 62.140625 27.484375 62.226562 27.320312 C 62.242188 27.289062 62.25 27.261719 62.207031 27.234375 C 61.988281 27.542969 62.007812 27.441406 62.078125 27.617188 C 62.097656 27.609375 62.117188 27.601562 62.121094 27.59375 C 62.125 27.570312 62.117188 27.527344 62.117188 27.527344 C 62.039062 27.527344 62.09375 27.457031 62.0625 27.433594 Z M 70.011719 18.304688 C 70.023438 18.332031 70.027344 18.371094 70.089844 18.34375 C 69.875 18.246094 70.023438 18.222656 69.953125 18.191406 C 69.726562 18.253906 69.859375 18.308594 69.871094 18.296875 C 69.921875 18.261719 69.964844 18.300781 70.011719 18.304688 Z M 70.800781 25.308594 C 70.777344 25.230469 70.785156 25.238281 70.761719 25.253906 C 70.851562 25.363281 70.734375 25.367188 70.847656 25.40625 C 70.835938 25.296875 70.847656 25.328125 70.800781 25.308594 Z M 70.503906 17.808594 C 70.488281 17.808594 70.472656 17.808594 70.457031 17.808594 C 70.453125 17.777344 70.453125 17.777344 70.390625 17.789062 C 70.414062 17.796875 70.4375 17.800781 70.460938 17.808594 C 70.460938 17.867188 70.46875 17.871094 70.535156 17.847656 C 70.496094 17.796875 70.492188 17.8125 70.535156 17.78125 C 70.546875 17.804688 70.558594 17.828125 70.582031 17.867188 C 70.578125 17.828125 70.578125 17.804688 70.570312 17.785156 C 70.550781 17.75 70.484375 17.75 70.503906 17.808594 Z M 70.738281 17.945312 C 70.71875 17.894531 70.699219 17.878906 70.667969 17.914062 C 70.664062 17.859375 70.664062 17.859375 70.609375 17.839844 C 70.679688 17.921875 70.65625 17.902344 70.738281 17.945312 Z M 71.921875 14.820312 C 72.402344 14.96875 72.601562 14.5625 73.019531 14.609375 C 72.152344 14.976562 72.554688 14.800781 73.0625 15.007812 C 73.167969 15.046875 73.058594 15.152344 72.957031 15.078125 C 72.941406 15.066406 72.589844 14.992188 72.582031 14.992188 C 72.523438 14.980469 72.515625 15.042969 72.574219 15.0625 C 72.617188 15.078125 73.105469 15.257812 73.140625 15.289062 C 73.578125 15.660156 73.511719 15.601562 73.53125 15.644531 C 73.511719 15.644531 73.488281 15.652344 73.480469 15.644531 C 73.285156 15.414062 72.863281 15.472656 72.695312 15.300781 C 72.632812 15.238281 72.546875 15.242188 72.464844 15.242188 C 72.449219 15.242188 72.429688 15.28125 72.402344 15.3125 C 71.445312 15.277344 71.875 15.363281 71.695312 15.554688 C 71.601562 15.660156 72.871094 15.683594 72.90625 15.949219 C 72.558594 15.855469 72.074219 15.707031 71.664062 15.851562 C 71.878906 16.136719 72.1875 16.082031 72.164062 16.214844 C 72.15625 16.261719 72.226562 16.289062 72.195312 16.320312 C 72.136719 16.285156 71.871094 16.121094 71.757812 16.144531 C 71.710938 16.15625 71.21875 15.996094 71.972656 16.371094 C 71.949219 16.429688 71.71875 16.277344 71.671875 16.28125 C 71.445312 16.28125 70.925781 16.003906 70.894531 16.136719 C 70.875 16.226562 70.953125 16.230469 71.003906 16.242188 C 71.132812 16.269531 71.035156 16.332031 71.3125 16.464844 C 71.738281 16.667969 71.980469 16.828125 72.117188 17.273438 C 71.796875 17.070312 71.839844 16.75 71.066406 16.488281 C 70.976562 16.457031 70.996094 16.46875 71.003906 16.597656 C 71.058594 16.601562 71.082031 16.601562 71.082031 16.621094 C 71.085938 16.753906 71.648438 16.960938 71.617188 17.027344 C 71.1875 16.910156 71.246094 16.921875 70.875 16.753906 C 70.824219 16.820312 70.789062 16.84375 71.074219 17.007812 C 71.566406 17.292969 71.851562 17.605469 71.855469 17.613281 C 72.019531 17.941406 71.914062 17.78125 71.550781 17.691406 C 71.503906 17.738281 71.527344 17.738281 71.859375 18.097656 C 71.519531 17.949219 71.1875 17.851562 70.839844 17.800781 C 70.824219 17.847656 71.027344 18.148438 71.144531 18.175781 C 71.203125 18.1875 71.257812 18.226562 71.316406 18.253906 C 71.054688 18.257812 70.800781 18.195312 70.542969 18.167969 C 70.511719 18.3125 70.628906 18.261719 70.761719 18.339844 C 70.34375 18.269531 70.355469 18.253906 70.335938 18.308594 C 70.707031 18.714844 70.605469 18.40625 70.765625 18.722656 C 70.652344 18.660156 70.664062 18.59375 70.574219 18.59375 C 70.53125 18.59375 70.585938 18.527344 70.480469 18.5625 C 70.449219 18.652344 70.644531 18.871094 70.667969 18.890625 C 70.730469 18.9375 70.726562 19.011719 70.789062 19.046875 C 70.765625 19.152344 70.476562 19.128906 70.417969 19.113281 C 70.253906 19.0625 70.335938 19.199219 70.253906 19.160156 C 69.890625 19 69.921875 19.011719 69.988281 19.171875 C 69.929688 19.144531 69.886719 19.148438 69.851562 19.109375 C 69.773438 19.035156 69.730469 19.109375 69.695312 19.054688 C 69.558594 18.867188 69.203125 19.09375 69.589844 19.257812 C 69.597656 19.257812 70.117188 19.414062 70.144531 19.421875 C 70.429688 19.507812 70.375 19.601562 70.296875 19.59375 C 69.886719 19.546875 69.855469 19.515625 69.964844 19.707031 C 69.773438 19.824219 69.742188 19.828125 69.753906 19.878906 C 69.839844 20.230469 70.152344 19.808594 70.460938 19.640625 C 71.105469 19.285156 70.875 19.515625 70.824219 19.535156 C 70.683594 19.597656 70.566406 19.699219 70.4375 19.78125 C 70.15625 19.964844 70.101562 19.980469 70.113281 20.078125 C 70.117188 20.109375 70.09375 20.128906 70.058594 20.125 C 69.964844 20.105469 69.898438 20.167969 69.824219 20.195312 C 69.761719 20.222656 69.753906 20.292969 69.789062 20.382812 C 70.015625 20.363281 69.570312 20.617188 70.277344 20.28125 C 71.109375 19.886719 71.101562 19.832031 71.140625 19.882812 C 71.007812 20.042969 70.859375 20.113281 70.589844 20.277344 C 70.625 20.410156 70.886719 20.292969 70.507812 20.527344 C 70.441406 20.570312 70.359375 20.570312 70.300781 20.628906 C 70.246094 20.683594 70.183594 20.726562 70.121094 20.78125 C 70.195312 20.851562 70.261719 20.816406 70.328125 20.789062 C 70.335938 20.785156 71.585938 20.335938 71.671875 20.410156 C 70.816406 20.730469 71.332031 20.613281 70.65625 20.902344 C 70.558594 20.941406 70.605469 21.003906 70.683594 20.992188 C 72.9375 20.613281 72.4375 20.785156 72.324219 20.792969 C 72.304688 20.792969 72.277344 20.78125 72.269531 20.792969 C 72.148438 20.886719 71.480469 20.980469 71.449219 21.101562 C 71.550781 21.140625 71.675781 21.066406 71.761719 21.175781 C 72.117188 21.074219 73.09375 21.089844 73.441406 21.085938 C 74.703125 21.078125 74.109375 21.183594 73.695312 21.171875 C 73.527344 21.164062 73.136719 21.273438 72.988281 21.261719 C 72.757812 21.242188 72.859375 21.355469 72.933594 21.347656 C 73.136719 21.320312 73.335938 21.371094 73.730469 21.375 C 73.722656 21.535156 73.488281 21.453125 73.265625 21.550781 C 72.972656 21.683594 74.554688 21.535156 74.5625 21.535156 C 74.640625 21.53125 74.945312 21.609375 74.753906 21.628906 C 73.269531 21.792969 72.957031 21.695312 72.683594 21.882812 C 72.859375 21.921875 73.320312 21.894531 73.746094 21.96875 C 73.792969 21.976562 73.800781 21.96875 74.695312 21.929688 C 75.019531 21.917969 75.007812 22.023438 74.785156 22.03125 C 74.183594 22.058594 71.785156 22.085938 72.710938 22.148438 C 74.21875 22.253906 74.125 22.238281 75.882812 22.445312 C 75.738281 22.628906 74.351562 22.289062 73.488281 22.410156 C 73.707031 22.53125 74.496094 22.5 75.09375 22.710938 C 75.433594 22.828125 75.027344 22.792969 74.957031 22.78125 C 74.402344 22.671875 73.417969 22.820312 73.71875 22.84375 C 73.875 22.855469 75.09375 22.953125 75.171875 23.085938 C 75.109375 23.109375 74.3125 23.070312 74.074219 22.976562 C 73.933594 22.921875 73.835938 22.9375 73.808594 22.941406 C 73.90625 23.121094 74.363281 23.082031 74.976562 23.316406 C 74.832031 23.433594 74.550781 23.261719 75.488281 23.496094 C 75.667969 23.539062 75.773438 23.5625 75.832031 23.675781 C 75.316406 23.726562 74.8125 23.339844 74.542969 23.410156 C 74.875 23.679688 75.402344 23.785156 75.617188 24.121094 C 75.601562 24.136719 75.609375 24.148438 75.542969 24.097656 C 74.96875 23.644531 74.714844 23.742188 74.382812 23.5 C 74.136719 23.320312 74.28125 24.105469 74.136719 24.210938 C 74.042969 24.160156 74.082031 24.078125 74.078125 23.761719 C 73.695312 23.875 74.050781 24.257812 74.289062 24.523438 C 74.203125 24.582031 73.792969 24.195312 73.765625 24.164062 C 73.71875 24.113281 73.601562 24.316406 73.574219 24.367188 C 73.890625 24.515625 73.871094 24.46875 73.878906 24.574219 C 73.910156 24.539062 73.9375 24.542969 73.964844 24.574219 C 74.335938 24.9375 74.539062 24.796875 74.019531 24.996094 C 73.667969 25.128906 74.367188 25.175781 74.722656 25.558594 C 74.6875 25.644531 74.28125 25.613281 74.082031 25.519531 C 74.019531 25.488281 73.882812 25.441406 73.730469 25.445312 C 73.867188 25.648438 74.632812 26.1875 74.886719 26.53125 C 74.625 26.542969 74.449219 26.183594 74.183594 26.042969 C 74.203125 26.15625 74.390625 26.589844 74.503906 26.761719 C 74.59375 26.894531 74.613281 27.054688 74.683594 27.191406 C 74.71875 27.257812 74.699219 27.226562 74.820312 27.425781 C 74.511719 27.507812 74.183594 26.796875 74.085938 26.59375 C 73.875 26.714844 74.234375 27.316406 74.199219 27.421875 C 74.183594 27.476562 74.136719 27.367188 74.203125 27.625 C 74.214844 27.675781 74.191406 27.726562 74.183594 27.773438 C 74.175781 27.820312 74.207031 27.871094 74.21875 27.917969 C 74.230469 27.960938 74.15625 27.976562 74.132812 27.917969 C 74.054688 27.71875 74.015625 27.746094 73.988281 27.535156 C 73.964844 27.339844 73.625 27.441406 73.417969 27.507812 C 72.972656 27.660156 72.625 27.574219 72.4375 27.683594 C 72.902344 27.789062 73.917969 27.832031 74.019531 28 C 73.855469 28.082031 73.734375 27.9375 72.84375 27.984375 C 72.710938 27.992188 72.675781 28.054688 72.199219 27.972656 C 71.847656 27.910156 71.515625 28.003906 71.640625 28.066406 C 71.753906 28.125 72.265625 28.242188 72.273438 28.242188 C 75.007812 28.460938 72.707031 28.449219 72.460938 28.425781 C 72.425781 28.421875 72.132812 28.398438 72.078125 28.402344 C 71.996094 28.410156 72.007812 28.496094 72.066406 28.511719 C 72.097656 28.519531 72.171875 28.527344 72.183594 28.542969 C 72.234375 28.636719 72.394531 28.570312 72.46875 28.714844 C 72.507812 28.785156 72.65625 28.8125 72.726562 28.832031 C 72.90625 28.878906 72.929688 28.914062 72.9375 28.90625 C 72.984375 28.847656 73.019531 28.90625 73.054688 28.917969 C 73.28125 28.96875 73.5 29.039062 73.734375 29.054688 C 73.941406 29.066406 73.808594 29.175781 73.734375 29.175781 C 73.167969 29.175781 71.621094 28.90625 71.28125 28.503906 C 71.582031 28.433594 71.425781 28.488281 71.3125 28.273438 C 71.28125 28.21875 71.238281 28.226562 70.929688 28.15625 C 70.871094 28.144531 70.640625 27.949219 70.589844 27.871094 C 70.367188 27.542969 69.484375 27.097656 69.476562 27.089844 C 67.128906 25.480469 66.21875 23.613281 66.199219 24.125 C 66.199219 24.132812 66.304688 24.863281 66.207031 25.0625 C 66.199219 25.070312 66.148438 25.535156 66.167969 25.664062 C 66.183594 25.769531 66.132812 25.871094 66.09375 25.976562 C 65.890625 25.324219 65.910156 23.367188 65.707031 24.863281 C 64.300781 35.277344 65.480469 30.503906 65.113281 40.070312 C 64.980469 43.539062 65.527344 52.730469 65.546875 52.972656 C 65.550781 52.980469 65.824219 55.625 65.644531 55.976562 C 65.488281 56.28125 65.660156 56.433594 65.507812 56.453125 C 65.414062 56.464844 65.394531 56.460938 65.351562 56.378906 C 65.320312 56.320312 65.304688 56.316406 65.011719 56.460938 C 64.632812 56.640625 64.359375 56.425781 63.816406 56.554688 C 63.722656 56.578125 63.574219 56.460938 63.621094 56.265625 C 63.738281 55.777344 63.632812 55.894531 63.824219 55.277344 C 64.042969 54.578125 64.085938 54.730469 64.320312 53.835938 C 64.472656 53.253906 63.9375 45.875 63.929688 45.652344 C 63.871094 44.070312 64.101562 43.292969 64.007812 42.078125 C 64 41.992188 63.953125 42.042969 63.933594 41.863281 C 63.867188 41.207031 64.042969 39.429688 64.042969 39.421875 C 64.097656 38.707031 63.875 36.878906 64.050781 34.449219 C 64.09375 33.878906 63.96875 33.601562 64.03125 33.199219 C 64.292969 31.527344 64.132812 31.105469 64.285156 30.089844 C 64.285156 30.082031 64.378906 28.925781 64.378906 28.917969 C 64.398438 27.835938 64.683594 28.402344 63.507812 27.300781 C 63.253906 27.0625 63.441406 27.410156 63.628906 27.699219 C 63.90625 28.128906 64.050781 28.15625 63.519531 27.855469 C 63.492188 28.003906 64.070312 28.433594 64.125 28.476562 C 64.042969 28.492188 63.496094 28.148438 63.402344 28.082031 C 63.324219 28.027344 63.257812 27.890625 63.164062 27.871094 C 63.214844 28.191406 63.394531 28.226562 63.421875 28.46875 C 63.160156 28.214844 63.113281 28.171875 63.078125 28.210938 C 63.046875 28.253906 63.078125 28.328125 63.109375 28.371094 C 63.675781 29.1875 63.867188 29.191406 63.222656 28.875 C 63.070312 28.960938 63.339844 29.125 63.507812 29.515625 C 63.257812 29.402344 63.25 29.371094 63.144531 29.5 C 63.054688 29.617188 63.140625 29.648438 63.421875 29.914062 C 64.222656 30.679688 63.53125 30.046875 63.125 29.984375 C 63.082031 30.085938 63.164062 30.074219 63.597656 30.601562 C 63.453125 30.582031 63.371094 30.492188 63.183594 30.4375 C 63.074219 30.40625 63.121094 30.515625 63.105469 30.535156 C 62.992188 30.691406 63.523438 31.070312 63.617188 31.300781 C 63.21875 31.0625 63.566406 31.3125 62.636719 30.488281 C 62.523438 30.617188 63.609375 31.625 63.210938 31.394531 C 63.195312 31.382812 62.460938 30.699219 62.699219 31.03125 C 63.765625 32.511719 63.894531 32.585938 63.351562 32.203125 C 63.222656 32.113281 62.953125 31.730469 62.789062 31.65625 C 62.792969 31.683594 62.8125 31.867188 62.867188 31.925781 C 62.960938 32.03125 63.101562 32.453125 63.199219 32.535156 C 63.308594 32.628906 63.324219 32.652344 63.382812 32.78125 C 63.355469 32.777344 63.125 32.691406 63.058594 32.609375 C 63.03125 32.574219 62.84375 32.320312 62.859375 32.425781 C 62.960938 33.046875 63.574219 33.875 63.6875 34.042969 C 63.742188 34.128906 63.625 34.257812 63.128906 33.4375 C 62.789062 32.871094 62.523438 32.363281 62.738281 33.105469 C 62.882812 33.609375 62.535156 32.785156 63.117188 34.328125 C 63.300781 34.816406 62.242188 33.078125 62.1875 31.324219 C 62.179688 31.113281 62.148438 30.730469 62.09375 30.933594 C 61.976562 31.378906 62.078125 31.476562 61.980469 31.265625 C 61.910156 31.5625 61.957031 32.144531 61.863281 31.601562 C 61.496094 29.433594 61.609375 29.746094 61.613281 29.125 C 61.371094 29.265625 61.238281 30.574219 61.21875 30.871094 C 61.148438 31.972656 61.113281 30.851562 61.125 30.695312 C 61.265625 29.160156 61.484375 29.171875 61.449219 28.578125 C 61.40625 27.84375 61.617188 27.605469 61.816406 27.121094 C 62.6875 25.03125 62.726562 25.386719 63.074219 24.9375 C 63.101562 24.925781 63.101562 25.011719 63.144531 24.949219 C 63.019531 24.828125 63.589844 24.308594 62.742188 25.003906 C 62.796875 24.230469 62.832031 24.472656 62.820312 24.382812 C 62.777344 24.085938 62.511719 24.6875 62.402344 24.96875 C 62.355469 25.085938 62.34375 24.976562 62.28125 25.011719 C 62.171875 25.066406 62.015625 25.632812 61.96875 25.902344 C 61.957031 25.988281 61.894531 26.046875 61.832031 26.105469 C 61.910156 25.347656 61.902344 25.273438 61.953125 25.152344 C 62 25.050781 61.957031 24.9375 61.835938 25.148438 C 61.691406 25.402344 61.675781 25.433594 61.648438 25.457031 C 61.519531 25.566406 61.582031 25.644531 61.511719 25.660156 C 61.5625 25.238281 61.601562 25.210938 61.394531 25.484375 C 61.277344 25.164062 61.527344 25.359375 61.347656 24.527344 C 61.324219 24.421875 61.214844 24.4375 61.195312 24.511719 C 60.980469 25.242188 61.175781 25.152344 61.070312 25.398438 C 60.996094 25.292969 60.945312 25.1875 60.933594 25.050781 C 60.828125 25.210938 60.898438 25.640625 60.816406 25.710938 C 60.71875 25.269531 60.886719 24.851562 60.804688 24.679688 C 60.546875 24.976562 60.65625 25.804688 60.542969 25.980469 C 60.464844 25.582031 60.621094 25.265625 60.507812 25.246094 C 60.414062 25.226562 60.390625 25.488281 60.347656 25.621094 C 60.363281 25.007812 60.46875 25.097656 60.433594 24.8125 C 60.128906 24.910156 59.828125 27.410156 59.820312 26.160156 C 59.820312 25.785156 60.105469 25.226562 60.011719 25.191406 C 59.492188 25.851562 59.378906 27.429688 59.375 26.960938 C 59.367188 25.949219 59.742188 25.300781 59.765625 25.011719 C 59.5625 25.164062 59.40625 25.632812 59.390625 25.636719 C 59.328125 25.65625 59.050781 25.902344 58.894531 26.417969 C 58.804688 26.707031 58.800781 26.488281 58.648438 26.902344 C 58.582031 26.828125 58.734375 26.082031 58.71875 25.851562 C 58.113281 26.410156 58.253906 28.308594 58.113281 26.585938 C 57.953125 26.65625 57.96875 26.75 57.875 27.761719 C 57.867188 27.875 57.761719 27.578125 57.773438 27.476562 C 57.800781 27.277344 57.703125 27.367188 57.675781 27.390625 C 57.664062 27.242188 57.730469 27.097656 57.652344 26.949219 C 57.464844 27.140625 57.476562 27.738281 57.46875 27.238281 C 57.371094 27.339844 57.386719 27.332031 57.304688 28.027344 C 57.175781 27.960938 57.332031 26.492188 56.980469 28.496094 C 56.953125 28.671875 56.925781 28.53125 56.9375 28.441406 C 57.203125 26.769531 56.859375 27.953125 56.789062 27.976562 C 56.964844 26.429688 57.277344 26.273438 57.515625 25.820312 C 58.0625 24.777344 58.539062 24.816406 59.09375 24.28125 C 59.210938 24.167969 59.164062 24.117188 59.367188 24.023438 C 61.34375 23.117188 61 23.261719 61.152344 23.132812 C 61.023438 22.613281 62.253906 21.550781 61.210938 22.28125 C 61.164062 22.3125 61.144531 22.425781 61.042969 22.445312 C 61.027344 22.5 60.964844 22.578125 60.875 22.574219 C 60.871094 22.796875 60.597656 22.929688 60.851562 22.566406 C 61.410156 21.78125 61.582031 21.542969 60.851562 22.183594 C 60.328125 22.644531 60.386719 22.941406 60.300781 22.917969 C 60.335938 22.738281 60.5 22.480469 60.507812 22.339844 C 60.511719 22.253906 60.664062 22.042969 60.722656 21.949219 C 60.75 21.90625 60.660156 21.789062 60.601562 21.882812 C 60.582031 21.917969 60.5625 21.953125 60.542969 21.988281 C 60.476562 21.960938 60.460938 21.964844 60.425781 22.011719 C 60.25 22.242188 59.980469 22.539062 59.996094 22.824219 C 59.832031 22.84375 60.039062 22.574219 60.027344 22.382812 C 59.984375 21.65625 60.117188 21.402344 60.074219 21.304688 C 59.859375 21.324219 59.820312 21.214844 59.199219 22.144531 C 59.101562 22.296875 59.078125 22.210938 58.988281 22.355469 C 58.910156 22.484375 58.90625 22.386719 58.808594 22.5 C 58.777344 22.53125 58.757812 22.570312 58.722656 22.601562 C 58.773438 22.324219 58.890625 22.070312 59.015625 21.824219 C 58.914062 21.78125 58.839844 21.953125 58.664062 21.957031 C 58.816406 21.824219 58.914062 21.8125 59.089844 21.644531 C 58.832031 21.484375 59.09375 20.917969 58.5625 21.71875 C 58.53125 21.765625 58.167969 22.160156 58.121094 22.132812 C 58.230469 21.460938 58.683594 20.808594 59.085938 20.257812 C 58.863281 20.347656 58.46875 20.941406 58.410156 20.996094 C 58.070312 21.332031 58.199219 21.542969 58.097656 21.171875 C 58.007812 20.832031 58.246094 20.625 57.976562 20.890625 C 57.785156 21.078125 57.792969 20.972656 57.722656 21.050781 C 57.414062 21.394531 57.3125 21.464844 57.257812 21.777344 C 57.230469 21.941406 57.167969 21.855469 57.183594 21.753906 C 57.214844 21.511719 57.210938 21.640625 57.25 21.316406 C 56.929688 21.601562 56.988281 21.929688 56.824219 21.886719 C 56.964844 21.550781 57.34375 20.765625 57.644531 20.546875 C 58.039062 20.253906 58.167969 19.96875 58.582031 19.667969 C 58.722656 19.566406 58.855469 19.628906 59.109375 19.488281 C 59.480469 19.285156 59.769531 19.402344 60.0625 19.304688 C 60.207031 19.257812 60.320312 19.320312 60.519531 19.425781 C 60.648438 19.492188 60.792969 19.300781 60.992188 19.53125 C 61.058594 19.609375 61.160156 19.601562 61.351562 19.679688 C 62.152344 20.019531 61.835938 19.910156 61.929688 19.9375 C 62.292969 20.046875 62.347656 20.382812 62.476562 20.328125 C 62.574219 20.285156 62.527344 20.335938 63.054688 20.515625 C 63.242188 20.578125 63.152344 20.6875 63.664062 20.929688 C 63.933594 21.058594 64.042969 21.175781 64.171875 21.292969 C 64.261719 21.371094 64.25 21.265625 64.515625 21.214844 C 64.722656 21.171875 64.753906 21.128906 64.203125 20.429688 C 64.042969 20.230469 64.007812 20.066406 64.441406 20.636719 C 65.617188 22.195312 64.019531 19.632812 64.085938 18.828125 C 64.152344 19.035156 64.253906 19.378906 64.347656 19.582031 C 64.414062 19.730469 64.648438 19.886719 64.550781 19.636719 C 64.347656 19.082031 64.144531 18.078125 64.222656 18.0625 C 64.445312 18.863281 64.3125 18.476562 64.671875 19.109375 C 64.859375 18.554688 64.339844 18.148438 64.230469 17.515625 C 64.195312 17.320312 64.117188 16.847656 64.257812 16.707031 C 64.257812 16.707031 64.320312 17.386719 64.515625 17.703125 C 64.691406 17.980469 64.855469 18.566406 65.011719 18.769531 C 65.046875 18.316406 64.703125 17.820312 64.664062 17.644531 C 64.125 15.21875 64.542969 16.738281 64.550781 16.746094 C 64.644531 16.859375 64.679688 16.996094 64.714844 17.132812 C 64.820312 17.523438 64.863281 17.402344 64.851562 17.316406 C 64.613281 15.363281 64.289062 15.441406 64.425781 15.25 C 64.570312 15.542969 65.058594 17.515625 64.953125 16.691406 C 64.921875 16.441406 64.898438 16.410156 64.957031 16.234375 C 65.070312 15.917969 65.035156 16.164062 64.800781 15.148438 C 64.785156 15.089844 64.863281 15.132812 64.867188 15.207031 C 64.867188 15.25 65.128906 16.171875 65.128906 16.179688 C 65.355469 15.832031 64.734375 14.679688 65.054688 14.519531 C 65.085938 14.503906 64.96875 14.46875 65.433594 15.953125 C 65.488281 16.125 65.53125 15.765625 65.496094 15.667969 C 65.316406 15.136719 65.3125 14.300781 65.335938 14.492188 C 65.460938 15.429688 65.570312 15.285156 65.566406 15.226562 C 65.554688 14.878906 65.515625 14.902344 65.621094 14.957031 C 65.753906 14.90625 65.628906 14.632812 65.644531 14.101562 C 65.652344 13.917969 65.765625 13.722656 65.753906 13.847656 C 65.679688 14.90625 65.71875 14.730469 65.917969 14.832031 C 66.242188 13.847656 66.007812 14.085938 66.121094 13.648438 C 66.148438 13.550781 66.183594 13.570312 66.175781 13.601562 C 66.140625 13.703125 66.171875 13.75 66.289062 14.296875 C 66.332031 14.5 66.433594 14.109375 66.585938 13.886719 C 66.636719 13.816406 66.703125 13.753906 66.707031 13.660156 C 66.710938 13.632812 66.730469 13.601562 66.746094 13.5625 C 66.824219 13.675781 66.730469 13.566406 66.789062 13.96875 C 66.820312 13.941406 66.839844 13.929688 66.851562 13.910156 C 67.324219 12.980469 67.507812 12.90625 67.46875 13.007812 C 67.464844 13.019531 67.085938 13.855469 67.078125 13.863281 C 67.019531 13.933594 67.070312 14.03125 67.121094 13.949219 C 67.742188 12.96875 67.867188 13.21875 67.792969 13.292969 C 67.6875 13.402344 67.320312 13.824219 67.367188 13.964844 C 68.554688 12.683594 68.953125 12.65625 68.121094 13.457031 C 68.042969 13.535156 68.011719 13.636719 68.128906 13.546875 C 68.476562 13.285156 68.398438 13.324219 68.769531 13.082031 C 68.847656 13.03125 68.847656 13.113281 68.773438 13.167969 C 68.660156 13.257812 68.546875 13.332031 68.441406 13.4375 C 68.375 13.507812 68.421875 13.554688 68.515625 13.484375 C 69.449219 12.8125 68.328125 13.753906 68.339844 13.863281 C 69.144531 13.558594 68.316406 14.003906 68.171875 14.304688 C 68.351562 14.328125 68.417969 14.09375 68.558594 14.195312 C 68.300781 14.578125 68.316406 14.257812 67.789062 15.097656 C 67.890625 15.167969 67.992188 15.046875 67.816406 15.199219 C 67.851562 15.320312 67.8125 15.304688 67.984375 15.238281 C 68.136719 15.179688 68.050781 15.28125 68.226562 15.167969 C 68.46875 15.015625 68.621094 15.113281 68.699219 15.003906 C 68.839844 14.820312 68.824219 14.847656 68.84375 14.859375 C 68.464844 15.601562 68.488281 15.46875 68.609375 15.632812 C 68.757812 15.546875 68.691406 15.535156 68.855469 15.320312 C 69.265625 14.78125 69.230469 14.800781 69.359375 14.839844 C 69.476562 14.875 69.617188 14.609375 69.796875 14.574219 C 69.835938 14.632812 69.34375 14.929688 69.328125 15.324219 C 69.535156 15.203125 69.691406 15.027344 69.851562 14.855469 C 69.96875 14.929688 69.558594 15.1875 69.636719 15.429688 C 69.792969 15.433594 70.058594 14.664062 70.414062 14.460938 C 70.40625 14.558594 69.976562 15.074219 70.28125 14.917969 C 71.25 14.410156 70.925781 14.847656 71.179688 14.679688 C 71.800781 14.269531 72.363281 13.941406 71.742188 14.40625 C 71.199219 14.808594 71.929688 14.492188 72.609375 14.21875 C 73.007812 14.058594 72.214844 14.527344 72.164062 14.535156 C 72.105469 14.542969 72.101562 14.652344 72.191406 14.628906 C 72.625 14.507812 71.886719 14.742188 71.921875 14.820312 " fill-opacity="1" fill-rule="nonzero"/></g></g></g></g><g clip-path="url(#1b61b618ff)"><g clip-path="url(#ad553d69f4)"><g clip-path="url(#d6b19cfff4)"><g clip-path="url(#d377992006)"><path fill="#000000" d="M 72.007812 14.171875 C 72.503906 13.871094 72.078125 14.164062 72.007812 14.171875 " fill-opacity="1" fill-rule="nonzero"/></g></g></g></g><g clip-path="url(#6f2b109407)"><g clip-path="url(#9b32bffd62)"><g clip-path="url(#c70a2c349d)"><g clip-path="url(#c9103f3764)"><path fill="#000000" d="M 66.820312 13.445312 C 66.820312 13.472656 66.816406 13.503906 66.816406 13.539062 C 66.769531 13.503906 66.769531 13.503906 66.820312 13.445312 " fill-opacity="1" fill-rule="nonzero"/></g></g></g></g><g clip-path="url(#98a5b88aa3)"><g clip-path="url(#c884cd455e)"><g clip-path="url(#3d9b1c9a37)"><g clip-path="url(#65c0393026)"><path fill="#000000" d="M 72.332031 14.578125 C 72.390625 14.535156 72.378906 14.535156 72.390625 14.566406 C 72.371094 14.570312 72.347656 14.574219 72.328125 14.578125 L 72.332031 14.578125 " fill-opacity="1" fill-rule="nonzero"/></g></g></g></g><g clip-path="url(#786673b062)"><g clip-path="url(#54d44d4109)"><g clip-path="url(#dfa36425cd)"><g clip-path="url(#599ae40be8)"><path fill="#000000" d="M 67.417969 17.21875 C 67.386719 17.292969 67.273438 17.207031 67.410156 17.175781 C 67.414062 17.191406 67.414062 17.203125 67.417969 17.21875 " fill-opacity="1" fill-rule="nonzero"/></g></g></g></g><g transform="matrix(1, 0, 0, 1, 23, 63)"><g clip-path="url(#d62f2641e1)"><g clip-path="url(#c312cb4fdc)"><g fill="#000000" fill-opacity="1"><g transform="translate(0.483162, 6.350857)"><g><path d="M 3.734375 -5.078125 L 3.734375 -4.421875 L 2.375 -4.421875 L 2.375 0 L 1.6875 0 L 1.6875 -4.421875 L 0.359375 -4.421875 L 0.359375 -5.078125 Z M 3.734375 -5.078125 "/></g></g></g></g><g fill="#000000" fill-opacity="1"><g transform="translate(6.446911, 6.350857)"><g><path d="M 3.53125 0 L 2.328125 -1.875 C 2.296875 -1.875 2.242188 -1.875 2.171875 -1.875 L 1.40625 -1.875 L 1.40625 0 L 0.734375 0 L 0.734375 -5.078125 L 2.09375 -5.078125 C 2.4375 -5.078125 2.742188 -5.015625 3.015625 -4.890625 C 3.285156 -4.773438 3.5 -4.597656 3.65625 -4.359375 C 3.8125 -4.117188 3.890625 -3.835938 3.890625 -3.515625 C 3.890625 -3.191406 3.816406 -2.898438 3.671875 -2.640625 C 3.535156 -2.378906 3.328125 -2.179688 3.046875 -2.046875 L 4.328125 0 Z M 2.15625 -2.53125 C 2.519531 -2.53125 2.78125 -2.625 2.9375 -2.8125 C 3.101562 -3.007812 3.1875 -3.234375 3.1875 -3.484375 C 3.1875 -3.628906 3.148438 -3.773438 3.078125 -3.921875 C 3.015625 -4.066406 2.90625 -4.1875 2.75 -4.28125 C 2.601562 -4.375 2.421875 -4.421875 2.203125 -4.421875 L 1.40625 -4.421875 L 1.40625 -2.53125 Z M 2.15625 -2.53125 "/></g></g></g><g fill="#000000" fill-opacity="1"><g transform="translate(12.958551, 6.350857)"><g><path d="M 3.390625 -1.328125 L 1.4375 -1.328125 L 0.90625 0 L 0.21875 0 L 2.453125 -5.296875 L 2.484375 -5.296875 L 4.703125 0 L 3.921875 0 Z M 3.15625 -1.921875 L 2.4375 -3.78125 L 1.6875 -1.921875 Z M 3.15625 -1.921875 "/></g></g></g><g fill="#000000" fill-opacity="1"><g transform="translate(19.758184, 6.350857)"><g><path d="M 4.78125 -5.078125 L 2.53125 0.234375 L 0.28125 -5.078125 L 1.09375 -5.078125 L 2.5625 -1.421875 L 3.96875 -5.078125 Z M 4.78125 -5.078125 "/></g></g></g><g fill="#000000" fill-opacity="1"><g transform="translate(26.684253, 6.350857)"><g><path d="M 4.03125 -5.078125 L 4.03125 -4.421875 L 1.40625 -4.421875 L 1.40625 -2.875 L 3.75 -2.875 L 3.75 -2.234375 L 1.40625 -2.234375 L 1.40625 -0.65625 L 4.140625 -0.65625 L 4.140625 0 L 0.734375 0 L 0.734375 -5.078125 Z M 4.03125 -5.078125 "/></g></g></g><g fill="#000000" fill-opacity="1"><g transform="translate(33.146722, 6.350857)"><g><path d="M 1.40625 -5.078125 L 1.40625 -0.65625 L 4 -0.65625 L 4 0 L 0.734375 0 L 0.734375 -5.078125 Z M 1.40625 -5.078125 "/></g></g></g></g></g></svg>